<svg xmlns="http://www.w3.org/2000/svg" viewBox="0 0 48 48"><g fill="#f15a24"><path d="M15,22h-1c-.552,0-1-.448-1-1V12h-1c-.552,0-1-.448-1-1v-1c0-.552,.448-1,1-1h2.5c.828,0,1.5,.672,1.5,1.5v10.5c0,.552-.448,1-1,1Z" fill="#f15a24"></path><path d="M35,22h-1c-.552,0-1-.448-1-1V12h-1c-.552,0-1-.448-1-1v-1c0-.552,.448-1,1-1h2.5c.828,0,1.5,.672,1.5,1.5v10.5c0,.552-.448,1-1,1Z" fill="#f15a24"></path><path d="M24,22c-2.757,0-5-2.243-5-5v-3c0-2.757,2.243-5,5-5s5,2.243,5,5v3c0,2.757-2.243,5-5,5Zm0-10c-1.103,0-2,.897-2,2v3c0,1.103,.897,2,2,2s2-.897,2-2v-3c0-1.103-.897-2-2-2Z" fill="#f15a24"></path><path d="M25,39h-1c-.552,0-1-.448-1-1v-9h-1c-.552,0-1-.448-1-1v-1c0-.552,.448-1,1-1h2.5c.828,0,1.5,.672,1.5,1.5v10.5c0,.552-.448,1-1,1Z" fill="#f15a24"></path><path d="M14,39c-2.757,0-5-2.243-5-5v-3c0-2.757,2.243-5,5-5s5,2.243,5,5v3c0,2.757-2.243,5-5,5Zm0-10c-1.103,0-2,.897-2,2v3c0,1.103,.897,2,2,2s2-.897,2-2v-3c0-1.103-.897-2-2-2Z" fill="#f15a24"></path><path d="M34,39c-2.757,0-5-2.243-5-5v-3c0-2.757,2.243-5,5-5s5,2.243,5,5v3c0,2.757-2.243,5-5,5Zm0-10c-1.103,0-2,.897-2,2v3c0,1.103,.897,2,2,2s2-.897,2-2v-3c0-1.103-.897-2-2-2Z" fill="#f15a24"></path><path d="M42,44h-2c-.553,0-1-.447-1-1s.447-1,1-1h2c.552,0,1-.448,1-1v-11.348c0-1.236,.292-2.473,.845-3.577l1.037-2.075-1.037-2.075c-.553-1.104-.845-2.341-.845-3.577V7c0-.552-.448-1-1-1h-2c-.553,0-1-.447-1-1s.447-1,1-1h2c1.654,0,3,1.346,3,3v11.348c0,.927,.219,1.854,.634,2.683l1.261,2.522c.141,.281,.141,.613,0,.895l-1.261,2.522c-.415,.828-.634,1.756-.634,2.683v11.348c0,1.654-1.346,3-3,3Z" fill="#f15a24"></path><path d="M6,44h2c.553,0,1-.447,1-1s-.447-1-1-1h-2c-.552,0-1-.448-1-1v-11.348c0-1.236-.292-2.473-.845-3.577l-1.037-2.075,1.037-2.075c.553-1.104,.845-2.341,.845-3.577V7c0-.552,.448-1,1-1h2c.553,0,1-.447,1-1s-.447-1-1-1h-2c-1.654,0-3,1.346-3,3v11.348c0,.927-.219,1.854-.634,2.683l-1.261,2.522c-.141,.281-.141,.613,0,.895l1.261,2.522c.415,.828,.634,1.756,.634,2.683v11.348c0,1.654,1.346,3,3,3Z" fill="#f15a24"></path></g></svg>