<?xml version="1.0" encoding="UTF-8"?>
<svg xmlns="http://www.w3.org/2000/svg" version="1.1" viewBox="0 0 1482.3 1500">
  <defs>
    <style>
      .cls-1 {
        fill: #eedfcd;
      }

      .cls-2 {
        fill: #fff;
      }

      .cls-3 {
        fill: #42210b;
      }

      .cls-4 {
        fill: #333;
      }
    </style>
  </defs>
  <!-- Generator: Adobe Illustrator 28.7.1, SVG Export Plug-In . SVG Version: 1.2.0 Build 142)  -->
  <g>
    <g id="Layer_1">
      <g>
        <path class="cls-3" d="M864.2,1424.6l-25.9-37c-8.3-11.1-10.5-25.4-6.4-38.2-3.1-4.6-6.1-9.1-9.1-13.5-19.8-29.8-35.7-53.6-68.2-69.7-28.9,6.7-51.4,16.7-71.8,42.7l-31.7,40.2c4.2,12.8,2.1,27.1-6.3,38.5l-25.9,37c3.1,9.6,1.8,20.4-4.2,29.2l-12.1,18.8c44.9,8.9,91.4,13.5,138.9,13.5s94-4.7,138.9-13.5l-12.1-18.8c-6-8.8-7.3-19.5-4.2-29.2Z"/>
        <path class="cls-3" d="M218,1156.2c6.2-8,15.6-12.7,25.8-12.9l26.9-36.6c7.6-10.4,19.7-16.8,32.6-17.3,3-3.7,5.9-7.4,8.9-11.1,14.3-17.7,29-35.9,41.6-54.5-26.3-22.9-40.2-52.5-39.6-84.8.4-16.8,5-33.2,13.3-47.4-26-37.8-31.9-83.5-15.1-121.8,5.6-12.9,13.6-24.1,23.7-33.5-9.5-50.6,16-95,66.1-114.8,7.9-40.9,39.7-74.6,87-91.3,19.3-6.8,40.7-10.7,63.6-11.6,11.8-11.9,27.2-20.9,45.7-26.9,48.8-15.7,55.6-17.3,77.9-22.7h.4c3.7-.9,8.2-2,24-6,15.7-3.9,30.9-5.9,45.2-5.9s29.9,2.2,44,6.6c30.9-6.2,52.4-17.8,69.8-27.2l.3-.2c19.3-10.4,36-19.5,53.6-19.5s29,6.6,42.3,20.3c9,9.2,17.5,24.4,22.7,40.8.6,1.7,1.1,3.5,1.6,5.3,41,6.3,73.8,30.2,89,65.6,6.7,15.7,9.7,32.7,8.9,50.7,5.4,2.6,10.6,5.6,15.4,8.8,33.8,22.8,50.3,59.8,44.1,99.1-.3,2.2-.7,4.4-1.2,6.7,30.5,27.6,44.1,76.6,33.2,119,27.7,22.6,40.3,58.9,33.9,99.7-5.9,37.6-27.7,75.6-59.8,104.2,10.5,18.3,22.1,34.4,35.1,52.2,13.2.3,25.6,6.7,33.3,17.4l26.8,36.6c5.2.1,10.3,1.4,14.8,3.7l2.9-1.5,47.7,60.8c.6.7,1.2,1.4,1.7,2.2,93-120.4,148.4-271.5,148.4-435.4,0-393.8-319.2-713-713-713S28.6,379.3,28.6,773.1s55.4,315,148.4,435.4c.6-.8,1.2-1.5,1.8-2.2l39.3-50.1Z"/>
        <path class="cls-2" d="M186.7,1228.8c0-2.3.4-4.5,1.2-6.5-3.7-4.6-7.3-9.1-10.9-13.8-4.3,5.8-6.7,12.8-6.7,20.2v14.2c5.4,5.8,10.9,11.4,16.4,17v-31.2Z"/>
        <path class="cls-2" d="M1295.2,1222.3c.8,2,1.2,4.1,1.2,6.4v34.5c5.6-5.5,11-11.1,16.4-16.8v-17.7c0-7.3-2.4-14.3-6.7-20.2-3.6,4.6-7.2,9.2-10.9,13.8Z"/>
        <path class="cls-2" d="M191.3,1216.9l39.7-50.6c4.9-6.3,13.3-8.2,20.2-5.3l32.8-44.6c6.3-8.6,16.9-12.2,26.8-10,22.1-27.9,46.4-56.1,65.1-86.3-28.6-19.9-45.8-48.4-45.1-80.7.4-17.5,6.2-34.5,17.1-48.2-26.1-32-37.1-76.3-20.2-114.7,5.6-12.9,14.4-24.7,26.9-34-14.1-50.3,11.6-92.8,62.7-108.8,4-44.4,38.3-74.1,77.6-87.9,19.1-6.7,41.2-10.6,65.5-10.9,9.8-11.7,24-21.3,43.3-27.5,48.5-15.6,54.9-17.1,77.1-22.4,3.9-.9,8.6-2,24.1-5.9,32.3-8,59.6-6.7,84.1,1.7,35.8-6.5,60.7-20,78.9-29.8,32-17.3,51.4-27.7,76.4-2.2,6.9,7,14.2,19.8,18.8,34.3,1.6,4.8,2.9,10,3.9,15.4,37.2,2.5,72,21.7,87.3,57,6.8,15.9,9.4,34.3,6.5,54.6,8.8,3.2,16.6,7.3,23.6,12,28,18.9,42.4,49.4,37.1,83-.7,5.1-2,10.2-3.7,15.3,36.1,24.7,48,79.7,32.5,119.3,31.8,19.4,42.6,55.1,37,90.7-5.1,32.4-24.1,67.5-54.6,94.7-3.2,2.8-6.4,5.7-9.6,8.5,14,27,30.4,48.9,48.1,73.1,10-2.7,21.2.8,27.7,9.7l32.8,44.6c7-2.9,15.4-1,20.2,5.3h.1c0,0,39.7,50.5,39.7,50.5,1.4,1.6,2.6,3.4,3.4,5.5,3.7-4.6,7.3-9.2,10.9-13.8-.6-.7-1.1-1.5-1.7-2.2l-47.7-60.8-2.9,1.5c-4.5-2.3-9.5-3.6-14.8-3.7l-26.8-36.6c-7.8-10.6-20.2-17.1-33.3-17.4-13-17.8-24.6-33.9-35.1-52.2,32.1-28.6,53.8-66.6,59.8-104.2,6.4-40.8-6.1-77.1-33.9-99.7,11-42.4-2.7-91.4-33.2-119,.5-2.3.9-4.5,1.2-6.7,6.2-39.2-10.3-76.3-44.1-99.1-4.8-3.3-10-6.2-15.4-8.8.8-18-2.2-35-8.9-50.7-15.2-35.3-48-59.3-89-65.6-.5-1.8-1-3.6-1.6-5.3-5.2-16.4-13.7-31.6-22.7-40.8-13.3-13.6-27.2-20.3-42.3-20.3s-34.3,9-53.6,19.5l-.3.2c-17.4,9.4-38.9,21-69.8,27.2-14.1-4.4-28.9-6.6-44-6.6s-29.5,2-45.2,5.9c-15.8,4-20.3,5-24,5.9h-.4c-22.4,5.4-29.1,7.1-77.9,22.8-18.5,6-33.9,15-45.7,26.9-22.9.9-44.3,4.8-63.6,11.6-47.3,16.7-79,50.3-87,91.3-50.1,19.9-75.6,64.2-66.1,114.8-10.1,9.4-18,20.6-23.7,33.5-16.8,38.3-10.9,83.9,15.1,121.8-8.3,14.2-13,30.6-13.3,47.4-.7,32.3,13.3,61.9,39.6,84.8-12.7,18.6-27.4,36.8-41.6,54.5-3,3.7-6,7.4-8.9,11.1-12.9.5-25,6.9-32.6,17.3l-26.9,36.6c-10.2.2-19.6,4.9-25.8,12.9l-39.3,50.1c-.6.7-1.3,1.5-1.8,2.2,3.6,4.6,7.2,9.2,10.9,13.8.8-2,2-3.8,3.4-5.4Z"/>
        <path class="cls-2" d="M897.7,1468.9c-5.7,1.3-11.4,2.5-17.2,3.6l3.9,6.1c5.8-1.1,11.6-2.2,17.4-3.4l-4.1-6.4Z"/>
        <path class="cls-2" d="M581.7,1474.7c5.8,1.2,11.5,2.3,17.3,3.4l3.6-5.6c-5.8-1.1-11.5-2.3-17.2-3.6l-3.7,5.8Z"/>
        <path class="cls-2" d="M882.1,1444.7c-4.6-6.6-3.8-15.4,1.3-21.3l-31.9-45.4c-6.9-9.1-6.8-21.2-.8-30.1-29.2-41.5-45.7-77-94.2-98.9-31.6,6.7-60.8,16.9-86.7,49.8l-38.1,48.4c6.5,9,6.7,21.5-.3,30.9l-31.9,45.4c5.2,5.8,5.9,14.7,1.3,21.3l-15.6,24.2c5.7,1.3,11.4,2.5,17.2,3.6l12.1-18.8c6-8.8,7.3-19.6,4.2-29.2l25.9-37c8.4-11.3,10.5-25.6,6.3-38.5l31.7-40.2c20.4-26,42.9-36,71.8-42.7,32.6,16.2,48.4,40,68.2,69.7,2.9,4.4,5.9,8.9,9.1,13.5-4.1,12.8-1.9,27.1,6.4,38.2l25.9,37c-3.1,9.6-1.8,20.4,4.2,29.2l12.1,18.8c5.8-1.1,11.5-2.3,17.2-3.6l-15.6-24.2Z"/>
        <path class="cls-2" d="M402.4,716.4c0,7.5,2.4,15.7,6.7,24.1-4.4-8.4-6.8-16.5-6.7-24.1Z"/>
        <path class="cls-2" d="M600.3,854.6c20.1.3,36-5.3,43.7-18.7-7.7,13.4-23.6,19-43.7,18.7Z"/>
        <path class="cls-2" d="M564.4,797.1c-.2,0-.4-.2-.6-.2,0,0,0,0,0,0,0,0,0,0,0,0,.2,0,.4.2.6.2Z"/>
        <path class="cls-2" d="M582.7,905.4s0,0,0,0c-71-8.6-158.7-57.9-203.2-115.5-6,7.3-8.3,16.9-8.1,26.5-.1-9.6,2.1-19.1,8.1-26.4,44.4,57.6,132.1,106.9,203.1,115.5Z"/>
        <path class="cls-2" d="M913.7,498.9c.5,1.5,1,3.1,1.3,4.6-9.7,2.3-19.7,5.5-29.9,9.4h0c-10.3,3.9-20.5,8-30.4,12.1,0,0,0,0,0,0,10-4.1,20.2-8.2,30.5-12.1,10.1-3.9,20.2-7,29.9-9.4-.4-1.6-.9-3.1-1.3-4.6-2.2-7-4.8-12.1-6.7-14-.3-.3-.6-.5-.9-.4.3,0,.6.1.9.4,1.9,1.9,4.4,7,6.7,14Z"/>
        <path class="cls-2" d="M567.5,645.4c-3.5-4.2-6.8-8.6-9.6-13.1-8.5-13.6-13.8-29-14.8-44.5,0,0,0,0,0,0,1,15.3,6.3,30.8,14.8,44.4,2.9,4.6,6.1,9,9.7,13.2Z"/>
        <path class="cls-2" d="M640.9,767c-13.9-1-42.1-11.9-57.6-18.2h0c-33.9-14-69-34.6-91.4-58.9,22.4,24.4,57.6,45.1,91.6,59,15.4,6.3,43.7,17.2,57.6,18.2,38.7,2.8,53.2-49.3,19.3-90,0,0,0,0,0,0,33.9,40.8,19.4,92.7-19.3,89.9Z"/>
        <path class="cls-2" d="M507.3,974.5s0,0,0,0h0c-30.8-3.6-47.5-11.9-74.3-23-14.7-6.1-28.6-13.4-41.2-21.5,12.6,8.3,26.6,15.5,41.3,21.6,26.8,11.1,43.4,19.4,74.2,23Z"/>
        <path class="cls-2" d="M396.2,970c-4.7-4.5-8.3-9.4-10.6-14.6-4.3-9.6-4.4-20.3.7-29h0s0,0-.1,0c-5.2,8.7-5,19.3-.7,29,2.3,5.3,6,10.2,10.7,14.7Z"/>
        <path class="cls-2" d="M803.4,548.3c-33.2,16.3-64,34.5-93.1,55.1-3.5,1.9-7.1,3.8-10.8,5.5,3.7-1.8,7.3-3.6,10.8-5.5,29-20.5,59.9-38.7,93.1-55.1-7.7-6.4-15.6-11.7-23.8-15.4-2.2-1-4.4-1.9-6.6-2.7,2.2.8,4.4,1.7,6.5,2.7,8.2,3.7,16,9,23.8,15.4Z"/>
        <path class="cls-2" d="M695.3,534.7c4.9-1.2,10.2-2.4,14.6-3.5-4.5,1.1-9.7,2.3-14.6,3.5Z"/>
        <path class="cls-2" d="M636.7,627.6c5.5,0,12-1,19.1-2.6,1.7-.4,3.5-.8,5.2-1.3-1.8.5-3.6.9-5.3,1.3-7,1.6-13.5,2.5-19,2.6Z"/>
        <polygon class="cls-2" points="303 1199.5 558 1392.2 303 1199.4 303 1199.5"/>
        <polygon class="cls-2" points="321.1 1176.6 321.1 1176.6 321.9 1177.2 321.1 1176.6"/>
        <polygon class="cls-2" points="1172.7 1168.2 907.7 1368 907.8 1368 1172.7 1168.3 1189.9 1191.8 1190 1191.8 1172.7 1168.2"/>
        <path class="cls-2" d="M1082.7,1068.2c-3,2.5-5.8,4.8-8.5,6.9,2.7-2.1,5.5-4.4,8.5-6.9h0Z"/>
        <path class="cls-2" d="M1128.6,1136.4l-237.5,179.1h0s237.5-179.1,237.5-179.1c-16.5-22.5-32.2-43.6-46-68.2h0,0c13.6,24.6,29.5,45.7,46,68.2Z"/>
        <path class="cls-2" d="M1098.2,986.3c21.5-19.1,34.6-42.7,37.9-63.8,2.9-18.4-1.4-33.1-16.1-40.2,14.6,7.2,18.8,21.9,15.9,40.2-3.3,21.1-16.4,44.7-37.9,63.8-21.3,19-45.3,41.2-68.4,57.5h0c0,0-160.3,113.1-160.3,113.1-35,24.7-69.6,31.1-102.3,37.1-49.3,9.1-95,17.5-138.3,72.6l-38,48.3h.1c0,0,38-48.2,38-48.2,43.3-55,88.9-63.5,138.3-72.6h0c32.6-5.9,67.2-12.3,102.3-37l160.3-113.2c23.2-16.4,47.2-38.5,68.4-57.5Z"/>
        <path class="cls-2" d="M1070.2,697.1c-1.1,7-4.4,14.9-10,23.2-8,11.9-4.9,28,7,36.1.6.4,1.2.8,1.9,1.1-.6-.3-1.2-.7-1.7-1.1-11.9-8-15.1-24.1-7-36.1,5.6-8.4,8.9-16.2,10-23.2,2.2-13.7-3.6-24.3-14.9-31.9-1.9-1.3-3.9-2.5-6.1-3.6,2.1,1.1,4.1,2.2,5.9,3.5,11.2,7.6,17.1,18.2,14.9,31.9Z"/>
        <path class="cls-2" d="M1093.2,833.7c-14.9,13.9-8.4,37.5,9.1,43.6-17.4-6.2-23.8-29.7-9-43.5,18.3-17,12.6-61.2-4.9-71,17.3,10,22.9,54,4.7,70.9Z"/>
        <path class="cls-2" d="M1006.4,576.1c4.9,11.2,4.9,26.2-1.3,44.2-3.8,10.8,0,22.1,8.2,28.7-8-6.6-11.8-17.8-8-28.6,6.3-18.1,6.2-33.1,1.3-44.2-4-9.4-11-15.8-19.8-20,8.6,4.2,15.6,10.6,19.6,19.9Z"/>
        <path class="cls-1" d="M601.9,838.2c7.2,0,15.8-.9,22-4.7-21.7-3.8-44.5-12.5-66.3-21.5-62.4-25.4-111.1-62.4-136.7-103.2-.6.9-1,1.8-1.4,2.7-1.9,5.4-.3,13.2,4.5,22.1,29.3,53.8,125,104.5,177.8,104.5Z"/>
        <path class="cls-1" d="M409.7,741.6c31.4,57.8,130.2,112.1,190.6,113.1,20.1.3,36-5.3,43.7-18.7,2.7-4.7,3.9-10.4,3.2-16.9-25.8.8-56.5-11.2-82.8-21.9-.2,0-.4-.2-.6-.2,0,0,0,0,0,0-58.9-24-114.9-63.4-137.1-111.7-16.9,6.9-24.3,18.1-24.3,31.2,0,7.5,2.4,15.7,6.7,24.1.2.4.4.7.6,1.1ZM419.6,711.6c.3-.9.8-1.8,1.4-2.7,25.6,40.8,74.3,77.8,136.7,103.2,21.8,8.9,44.6,17.7,66.3,21.5-6.2,3.7-14.8,4.7-22,4.7-52.8,0-148.6-50.7-177.8-104.5-4.8-8.9-6.5-16.8-4.5-22.1Z"/>
        <path class="cls-1" d="M389.9,828.7c6.8,24.3,39.6,47.4,69.1,59.6,3.3,1.4,6.3,2.7,9.3,3.9,18.1,7.7,30.6,13,53.5,15-48.6-17.4-97.5-47.4-132.8-82.2.3,1.3.6,2.5.9,3.7h0Z"/>
        <path class="cls-1" d="M374.1,833.1c8.9,31.7,47.2,57.3,78.6,70.3,25.9,10.8,40.7,19,76.2,20.7,19.7,1,42.4-4.1,53.8-18.7-71-8.6-158.7-57.9-203.1-115.5-6,7.3-8.2,16.8-8.1,26.4.1,5.8,1.1,11.5,2.5,16.9h0ZM521.8,907.2c-23-2-35.5-7.3-53.5-15-2.9-1.3-6-2.6-9.3-3.9-29.5-12.2-62.3-35.3-69.1-59.6h0c-.3-1.2-.6-2.4-.9-3.7,35.3,34.8,84.2,64.9,132.8,82.2Z"/>
        <path class="cls-1" d="M892.4,496.6h0c-11.2,6.1-24.7,13.3-41.3,20,1.1.7,2,1.4,2.7,1.9l-2.6,3.2c1.1,1.1,2.2,2.2,3.3,3.4,9.9-4.1,20.1-8.2,30.4-12.1h0c10.2-3.9,20.2-7,29.9-9.4-.4-1.6-.8-3.1-1.3-4.6-2.2-7-4.7-12.1-6.7-14-.3-.3-.6-.4-.9-.4-2.1.1-4.4,7.2-13.7,12.1Z"/>
        <path class="cls-1" d="M851.2,516.6c-1.2.5-2.4,1-3.7,1.5,1.3,1.2,2.5,2.4,3.8,3.7l2.6-3.2c-.6-.5-1.5-1.2-2.7-1.9Z"/>
        <path class="cls-1" d="M487.6,653.9c10.8,27.9,49.9,58.5,102.1,79.8,36.7,15,49.5,16.8,52.5,17,.6,0,1.2,0,1.8,0,7.4,0,12.8-3.6,16-10.6,5-10.6,4.3-28-7-45.4-5.6.7-11.1,1-16.3,1-13.2,0-25.3-2.1-35.9-6.4-22.9-9.1-43-26.4-56.8-48.5-6.7-10.9-11.6-22.5-14.5-34.3-8.4,1.9-16,4.6-22.5,8l-3,1.8c-22.6,13.2-20.2,27.7-16.4,37.5Z"/>
        <path class="cls-1" d="M495.7,602.2c-21.4,12.4-33.4,31.7-23.5,57.6,4,10.5,10.8,20.6,19.6,30.1,22.4,24.3,57.5,44.9,91.4,58.8h0c15.4,6.4,43.7,17.3,57.6,18.3,38.7,2.8,53.2-49.1,19.3-89.9-18.9,3.4-37.5,3.4-53.4-2.9-15.1-6-28.6-16.3-39.3-28.8-3.6-4.2-6.8-8.6-9.7-13.2-8.5-13.6-13.8-29-14.8-44.4-18.9,2-35,7-47.5,14.3h0ZM507,614.6c6.5-3.4,14.1-6,22.5-8,2.8,11.8,7.7,23.4,14.5,34.3,13.7,22.2,33.9,39.4,56.8,48.5,10.6,4.2,22.7,6.4,35.9,6.4s10.7-.3,16.3-1c11.3,17.4,12,34.8,7,45.4-3.3,7-8.7,10.6-16,10.6s-1.2,0-1.8,0c-3-.2-15.8-2.1-52.5-17-52.2-21.3-91.3-51.9-102.1-79.8-3.8-9.8-6.2-24.3,16.4-37.5l3-1.8Z"/>
        <path class="cls-1" d="M436.1,970.5c-3-1.3-6.2-2.6-9.5-4-6.7-2.8-13.3-5.8-19.6-9,12.4,12.5,37.2,23.1,59.4,24.8-10.2-3.3-19.8-7.4-30.3-11.8Z"/>
        <path class="cls-1" d="M385.6,955.3c2.3,5.2,6,10.1,10.6,14.6,25.3,24.4,79.3,37,100.3,23.5,6.7-4.3,9.7-10.8,10.7-19-30.8-3.6-47.4-11.9-74.2-23-14.8-6.1-28.7-13.4-41.3-21.6-1.8-1.2-3.6-2.4-5.3-3.6h0c-5.2,8.7-5,19.4-.7,29ZM426.6,966.6c3.3,1.4,6.4,2.7,9.5,4,10.6,4.4,20.1,8.5,30.3,11.8-22.2-1.7-47.1-12.3-59.4-24.8,6.4,3.2,12.9,6.2,19.6,9Z"/>
        <path class="cls-1" d="M624.4,572.4c-13.4,4.3-13.2,8.4-13,10.9.5,10.2,10.4,23.3,20.7,27.4,0,0,0,0,0,0,0,0,1.2.4,4.3.4s9.6-.8,15.9-2.2c14.6-3.4,32.1-10.3,49.5-19.6,21.7-15.3,44.4-29.4,68.9-42.6-7.7-3.2-15.9-4.7-24.8-4.7s-15.7,1.1-24.6,3.3c-3,.7-7.5,1.8-12.5,3-4,1-8.3,2-12.2,2.9l-.8.2c-19.3,4.7-25.1,6.1-71.3,20.9h0Z"/>
        <path class="cls-1" d="M619.3,556.8h0c-13.3,4.3-25.2,11.8-24.4,27.4.9,17.2,15.2,35.5,31,41.8,2.9,1.1,6.5,1.6,10.8,1.6,5.5,0,12-1,19-2.6,1.8-.4,3.5-.8,5.3-1.3,12.5-3.4,25.7-8.6,38.4-14.7,3.6-1.8,7.2-3.6,10.8-5.5,29.1-20.6,59.9-38.8,93.1-55.1-7.7-6.4-15.6-11.7-23.8-15.4-2.1-1-4.3-1.9-6.5-2.7-15.6-5.5-33.6-6.3-55.8-.8-1.9.5-4.5,1.1-7.3,1.8-4.5,1.1-9.7,2.3-14.6,3.5-.9.2-1.8.4-2.6.6-20.1,4.9-25.9,6.2-73.3,21.4ZM695.7,551.5l.8-.2c3.9-.9,8.2-2,12.2-2.9,5-1.2,9.5-2.3,12.5-3,8.8-2.2,17.1-3.3,24.6-3.3s17.1,1.6,24.8,4.7c-24.5,13.2-47.2,27.3-68.9,42.6-17.4,9.3-34.9,16.2-49.5,19.6-6.3,1.4-11.8,2.2-15.9,2.2s-4.3-.4-4.3-.4c0,0,0,0,0,0-10.3-4.1-20.1-17.2-20.7-27.4-.1-2.5-.3-6.7,13-10.9h0c46.2-14.8,52-16.2,71.3-20.9Z"/>
        <polygon class="cls-1" points="558 1392.2 575 1368.1 321.9 1177.2 321.1 1176.6 303 1199.4 558 1392.2"/>
        <polygon class="cls-1" points="907.8 1368 924.7 1392.2 924.7 1392.1 1189.9 1191.8 1172.7 1168.3 907.8 1368"/>
        <path class="cls-1" d="M895,1292l210.8-159c-9.6-13.2-18.9-26.2-27.6-40.2-3.4,2.6-6.5,4.9-9.2,6.8l-160.3,113.2c-16.2,11.5-32.7,20.5-50.7,27.8,12.4,15,24,32.1,34.6,47.8.8,1.2,1.6,2.4,2.4,3.6Z"/>
        <path class="cls-1" d="M828.9,1233.4c22.9,21.3,44.1,56.1,62.3,82.1l237.5-179.1c-16.5-22.5-32.3-43.6-46-68.2-3,2.5-5.8,4.8-8.5,6.9-1.3,1-2.5,2-3.7,3-.4.3-.9.7-1.3,1-1.4,1.1-2.8,2.1-4.1,3.1-2,1.5-3.9,2.9-5.6,4.1l-160.3,113.2c-1.5,1.1-3.1,2.1-4.6,3.2-7.6,5.1-15.1,9.6-22.5,13.4-3,1.5-5.9,3-8.8,4.4-2.9,1.4-5.8,2.7-8.7,3.9-4.3,1.8-8.7,3.5-12.9,5-4.3,1.5-8.5,2.9-12.7,4.1h0ZM908.7,1212.9l160.3-113.2c2.7-1.9,5.8-4.2,9.2-6.8,8.7,14,18,27,27.6,40.2l-210.8,159c-.8-1.2-1.6-2.4-2.4-3.6-10.6-15.7-22.2-32.8-34.6-47.8,18-7.3,34.5-16.3,50.7-27.8Z"/>
        <polygon class="cls-1" points="1082.7 1068.2 1082.7 1068.2 1082.7 1068.2 1082.7 1068.2"/>
        <path class="cls-1" d="M764.2,1177.9l8.5-1.6h0c28.7-5.3,58.1-12.1,87.3-32.7l160.3-113.2c19.4-13.8,40.2-32.4,58.6-48.9,2.8-2.5,5.6-5,8.4-7.5,17.6-15.6,29.8-35.8,32.6-54.1,3.1-20-5.2-23.5-14.1-25.1-16.4-2-29.8-13.1-35-28.9-5.3-15.9-.9-32.8,11.3-44.2,4.8-4.4,7.1-15.5,5.5-26.8-1.3-9.8-5-16-6.9-17.6-8.2-.2-16-2.7-22.7-7.3-19.3-13-24.5-39.4-11.4-58.8,4.1-6.1,6.7-11.9,7.5-16.7.8-4.9.4-10.2-7.9-15.7-5.5-3.7-13.1-6.5-21.9-8-12.6-1.6-23.7-8.7-30.5-19.5-6.9-10.9-8.4-24.2-4.1-36.5,4.6-13.1,5.2-24.5,1.8-32.3-2.7-6.3-8-10.7-16.3-13.6-6.3-2.2-12.7-3.3-19.4-3.3-14.6,0-29.1,5.1-45.9,11l-.8.3c-64.3,22.7-121.1,53-173.4,92.6,11.1,24.8,14.7,50.9,10.4,76.3-4,23.8-15,45.2-31.4,61.2,3.4,22.4-.7,44.7-11.9,63.7-10.9,18.4-28,33.2-48.8,42.2-9.5,35.4-39.4,63.2-79.6,74.3-7.4,42.5-38,72.2-82.3,78.7-6.1.9-12.6,1.4-19.2,1.4-13.7,0-28-1.9-42.8-5.7-15.6,24-33.5,46.3-50.9,67.9-.9,1.1-1.7,2.2-2.6,3.2l211.2,159.2,28.1-35.6c47.3-60,98.6-69.4,148.2-78.6Z"/>
        <path class="cls-1" d="M767,1194c32.6-6,67.2-12.4,102.3-37.1l160.3-113.2h0c23.2-16.3,47.2-38.5,68.4-57.4,21.5-19.1,34.6-42.7,37.9-63.8,2.9-18.3-1.4-33-15.9-40.2-3.4-1.6-7.3-2.9-11.8-3.7-2.1-.2-4.1-.7-5.9-1.4-17.5-6-24-29.7-9.1-43.6,18.2-17,12.6-61-4.7-70.9-1.8-1-3.6-1.6-5.6-1.9-4.7.2-9.5-.9-13.8-3.3-.6-.4-1.3-.7-1.9-1.1-11.9-8-15.1-24.1-7-36.1,5.6-8.3,8.9-16.2,10-23.2,2.2-13.7-3.7-24.4-14.9-31.9-1.8-1.2-3.8-2.4-5.9-3.5-6.4-3.2-14-5.6-22.7-7.1-5.1-.6-9.7-2.6-13.4-5.7-8.1-6.6-12-17.9-8.2-28.7,6.3-18.1,6.2-33,1.3-44.2-4-9.3-11-15.7-19.6-19.9-2-1-4-1.8-6.2-2.6-27.5-9.6-51.2-1-77,8-72.6,25.6-132.5,59.4-186.4,101.6l-2.2,1.8c13.6,24.1,19.6,51.3,15,78.3-3.9,23.2-15.4,43.8-33.2,57.9,11.5,45.2-14,85.3-56.8,99.8-6.3,39.4-40.4,65.7-80.4,73-2.7,41.8-28.9,69.9-69.7,75.9-20.3,3-43.6.2-66.9-7.3-20.2,33.2-45.5,63-69.6,93.3l237.4,179,38-48.3c43.3-55,89-63.5,138.3-72.6ZM587.9,1292.1l-211.2-159.2c.9-1.1,1.7-2.2,2.6-3.2,17.4-21.7,35.3-43.9,50.9-67.9,14.7,3.8,29.1,5.7,42.8,5.7s13.1-.5,19.2-1.4c44.3-6.5,74.9-36.2,82.3-78.7,40.2-11.1,70.1-38.9,79.6-74.3,20.8-9,37.9-23.7,48.8-42.2,11.2-19,15.3-41.3,11.9-63.7,16.4-15.9,27.4-37.3,31.4-61.2,4.3-25.4.7-51.6-10.4-76.3,52.2-39.5,109.1-69.9,173.4-92.6l.8-.3c16.8-5.9,31.3-11,45.9-11s13,1.1,19.4,3.3c8.3,2.9,13.6,7.3,16.3,13.6,3.4,7.8,2.7,19.2-1.8,32.3-4.2,12.2-2.7,25.5,4.1,36.5,6.8,10.8,17.9,17.9,30.5,19.5,8.9,1.5,16.5,4.3,21.9,8,8.2,5.6,8.7,10.9,7.9,15.7-.8,4.7-3.3,10.5-7.5,16.7-13.1,19.4-7.9,45.8,11.4,58.8,6.7,4.6,14.6,7.1,22.7,7.3,1.9,1.6,5.6,7.8,6.9,17.6,1.5,11.3-.8,22.4-5.5,26.8-12.2,11.4-16.6,28.3-11.3,44.2,5.2,15.8,18.6,26.8,35,28.9,8.9,1.6,17.2,5.1,14.1,25.1-2.8,18.2-15,38.4-32.6,54.1-2.7,2.4-5.5,4.9-8.4,7.5-18.4,16.5-39.2,35.1-58.6,48.9l-160.3,113.2c-29.2,20.6-58.6,27.4-87.3,32.8h0c0,0-8.5,1.5-8.5,1.5-49.6,9.1-101,18.5-148.2,78.6l-28.1,35.6Z"/>
        <path class="cls-3" d="M1252.1,1166.3h-.1c-4.9-6.2-13.3-8.2-20.2-5.2l-32.8-44.6c-6.5-8.9-17.7-12.4-27.7-9.7-17.8-24.2-34.1-46.1-48.1-73.1,3.1-2.8,6.4-5.6,9.6-8.5,30.6-27.2,49.6-62.3,54.6-94.7,5.6-35.6-5.2-71.3-37-90.7,15.4-39.6,3.5-94.5-32.5-119.3,1.6-5.1,2.9-10.2,3.7-15.3,5.3-33.6-9.1-64.1-37.1-83-7-4.7-14.8-8.8-23.6-12,2.8-20.4.3-38.8-6.5-54.6-15.2-35.4-50.1-54.6-87.3-57-1-5.3-2.3-10.6-3.9-15.4-4.6-14.5-11.9-27.3-18.8-34.3-25-25.6-44.4-15.1-76.4,2.2-18.2,9.8-43.1,23.3-78.9,29.8-24.5-8.5-51.8-9.7-84.1-1.7-15.5,3.9-20.2,5-24.1,5.9-22.3,5.3-28.6,6.8-77.1,22.4-19.3,6.2-33.5,15.8-43.3,27.5-24.4.3-46.4,4.1-65.5,10.9-39.3,13.9-73.6,43.6-77.6,87.9-51.1,16-76.8,58.5-62.7,108.8-12.5,9.4-21.3,21.1-26.9,34-16.9,38.4-5.8,82.7,20.2,114.7-10.9,13.7-16.7,30.7-17.1,48.2-.7,32.4,16.5,60.9,45.1,80.7-18.7,30.2-43,58.4-65.1,86.3-9.8-2.2-20.5,1.3-26.8,10l-32.8,44.6c-7-2.9-15.4-1-20.2,5.3l-39.7,50.6c-1.5,1.5-2.6,3.4-3.4,5.4,99.3,122.3,238.4,211,397.5,246.6l15.6-24.2c4.6-6.6,3.9-15.4-1.3-21.3l31.9-45.4c7-9.4,6.8-21.9.3-30.9l38.1-48.4c25.9-32.8,55.1-43.1,86.7-49.8,48.6,21.9,65.1,57.3,94.2,98.9-6,8.9-6.1,21.1.8,30.1l31.9,45.4c-5.2,5.8-5.9,14.7-1.3,21.3l15.6,24.2c159.1-35.6,298.2-124.3,397.5-246.6-.8-2-2-3.9-3.4-5.5l-39.7-50.6ZM841.5,502.7c17.5-6.7,31.7-14.4,43.1-20.6,2.8-1.5,4.2-3.3,5.8-5.3,2.3-2.9,7-8.9,15.8-8.9s9.1,1.9,12.5,5.3c1.5,1.5,5.9,5.9,10.6,20.4.7,1.9,1.3,4,1.8,6.1l3.8,16-16,3.8c-8.8,2.1-18.2,5-27.9,8.7l-2.8,1.1h0c-7.9,3-16.5,6.4-27.2,10.9l-10.3,4.3-7.8-8c-.6-.7-1.3-1.3-1.9-1.9l-7.6,9.4c-9-7.2-7.3-15.7-6.1-19l.9-2.7-11-10.3,24.4-9.4ZM614.3,541.2c46.8-15,53.6-16.8,74.5-21.8,8.4-2,18.9-4.5,24.4-5.9,11.4-2.9,22.4-4.3,32.6-4.3,14.7,0,28,2.9,40.8,8.8,9.1,4.2,18.1,10,27.4,17.7l19.4,16.2-22.7,11.2c-33,16.3-62.8,33.8-90.9,53.8l-.8.6-.9.5c-14.2,7.7-36,18-58.7,23.2-8.7,2-16.5,3-23.1,3h0c-4.9,0-9.2-.5-13.1-1.6h-.5l-3-1.1c-22.3-8.8-40.1-33-41.3-56.2-1.3-27.8,21.9-39.4,35.8-43.9ZM487.3,587.9c15-8.7,33.1-14.2,54.1-16.5l17-1.8,1.1,17.1c.8,12.4,5,25.1,12.3,36.8,9.9,16,24.9,28.8,41,35.3,6.7,2.7,14.7,4,23.6,4,6.4,0,13.4-.7,20.8-2l9.4-1.7,6.1,7.4c22.5,27,29.1,61.4,16.9,87.6-8.6,18.4-25.8,29.4-45.8,29.4h0c-1.4,0-2.7,0-4.1-.1-4.5-.3-18.2-1.3-62.6-19.4l-3.1-1.3h-.1c-25.6-10.9-49.3-24.2-68.5-38.7-24.5-18.5-40.9-38.2-48.7-58.5-11.8-30.6-.4-59.6,30.5-77.7ZM388.7,700.5c3.4-9.4,11.6-22.3,31.9-30.5l14.5-5.9,6.5,14.2c18,39.2,66.1,77.9,128.5,103.4,25.9,10.6,53,20.9,74.8,20.9.6,0,1.2,0,1.9,0l15.2-.4,1.6,15.2c1,9.7-.8,19-5.3,26.8-7.1,12.3-22.6,27-56.4,27h0c-32.3,0-74.2-13.4-115-36.8-42.1-24.1-75.5-55-91.7-84.8-9.5-17.5-11.8-34.4-6.6-49ZM358.2,837.7c-6.3-22.6-3.2-43.8,8.7-58.2l13.1-15.8,12.6,16.3c41.7,54,124.3,101,192.1,109.2l28.9,3.5-18,22.9c-12.5,16-35.2,25.1-62.1,25.1s-3.7,0-5.5-.1c-33.8-1.6-50.7-8.8-72.2-18-.7-.3-1.3-.6-2-.8l-7.4-3c-35.8-14.8-77.8-43.9-88.2-81.1ZM370.6,961.9c-6.7-15-6.1-31,1.7-44l4.8-8h14.5l4.3,2.9c13,9,27.6,16.9,43.5,23.5,3.4,1.4,6.6,2.7,9.7,4,21.4,9,35.6,15,60.3,17.8l16.6,1.9-2.3,16.6c-1.9,14.1-7.9,24.1-18.2,30.7-8.4,5.3-19.4,8.1-32.9,8.1h0c-37.8,0-87.8-21.5-101.9-53.5ZM561.8,1415.6l-282.1-213.3,38.5-48.5,279.4,210.6-35.8,51.2ZM641.6,1276.7l-48,60.9-263.8-198.9,10.4-13.2c4.4-5.5,8.8-11.1,13.3-16.6,19.3-24,39.2-48.9,55.1-75l6.7-11.1,12.3,4c15.6,5,31.2,7.7,45.1,7.7s9.8-.3,14.4-1c33.3-4.9,53.6-27,55.7-60.7l.8-12.8,12.6-2.3c28.7-5.3,61.4-23.7,67.1-59.5l1.6-9.8,9.4-3.2c36.1-12.2,55.1-45.2,46.2-80.2l-2.6-10.3,8.4-6.6c14.3-11.3,23.9-28.2,27.2-47.7,3.8-22.4-.7-45.7-13.1-67.4l-6.9-12.2,13.3-10.7c57.4-44.9,119.9-79,191.1-104.1l.8-.3c18-6.3,36.7-12.9,56.9-12.9s20.3,1.7,30.2,5.1c16.9,5.9,29.3,16.9,35.6,31.6,6.8,15.6,6.4,35-.9,56.1-1.3,3.7,0,6.7.9,8.1,1.6,2.5,4.1,4.1,7,4.4h.4s.4.1.4.1c13.8,2.3,25.7,6.8,35.3,13.2,17.2,11.6,25,28.7,21.9,48.1-1.5,9.7-5.8,19.7-12.7,29.9-1.4,2.1-1.9,4.6-1.4,7.1.5,2.5,1.9,4.7,4.1,6.1,1.6,1.1,3.4,1.6,5.3,1.6s.3,0,.4,0h1.3c0,0,1.3,0,1.3,0,14.4,1.6,26.2,13.1,32.2,31.5,10.1,30.5.6,57.6-12.4,69.7-3.9,3.6-3.2,7.8-2.5,9.9.5,1.4,2.4,6,8,6.6h.6c0,0,.6.2.6.2,31.1,5.5,46.5,28.9,41.2,62.6-4,25.9-19.8,52.7-43.2,73.5-2.9,2.6-5.8,5.2-8.8,7.9-18.9,16.9-40.3,36.1-61.1,50.8l-11.2,7.9h0c0,0-149.1,105.2-149.1,105.2-38.1,26.9-75.6,33.8-108.8,39.8-47.7,8.8-88.8,16.3-128.4,66.6ZM877.7,1324.9c-4-5.7-8.1-11.7-12.3-18.1-14.6-21.6-31.1-46-47.7-61.4l-21.1-19.6,27.6-8.2c24.5-7.3,45.3-17.3,65.6-31.6l160.3-113.2c5.5-3.9,13-9.8,22.2-17.3l15.2-12.5,9.6,17.3c12.3,22.1,26.6,41.6,41.7,62.3l12.7,17.3-264,199.1-9.8-13.9ZM921,1415.5l-35.8-51,290.9-219.4,36.7,50.1-291.8,220.3Z"/>
        <path class="cls-3" d="M486.9,834.2c40.8,23.4,82.7,36.8,115,36.8h0c33.8,0,49.3-14.6,56.4-27,4.5-7.8,6.3-17.1,5.3-26.8l-1.6-15.2-15.2.4c-.6,0-1.2,0-1.9,0-21.8,0-48.9-10.3-74.8-20.9-62.4-25.5-110.4-64.1-128.5-103.4l-6.5-14.2-14.5,5.9c-20.2,8.2-28.5,21.1-31.9,30.5-5.2,14.5-2.9,31.5,6.6,49,16.2,29.7,49.6,60.7,91.7,84.8ZM426.7,685.2c22.2,48.3,78.2,87.6,137.1,111.7,0,0,0,0,0,0,.2,0,.4.2.6.2,26.3,10.7,57,22.6,82.8,21.9.7,6.5-.5,12.2-3.2,16.9-7.7,13.4-23.6,19-43.7,18.7-60.4-.9-159.2-55.2-190.6-113.1-.2-.4-.4-.7-.6-1.1-4.4-8.4-6.8-16.5-6.7-24.1,0-13.1,7.4-24.3,24.3-31.2Z"/>
        <path class="cls-3" d="M446.4,918.8l7.4,3c.7.3,1.3.6,2,.8,21.5,9.1,38.4,16.3,72.2,18,1.8,0,3.7.1,5.5.1,26.9,0,49.6-9.2,62.1-25.1l18-22.9-28.9-3.5c-67.9-8.2-150.5-55.2-192.1-109.2l-12.6-16.3-13.1,15.8c-11.9,14.4-15.1,35.6-8.7,58.2,10.4,37.2,52.4,66.3,88.2,81.1ZM371.5,816.3c-.2-9.6,2-19.1,8.1-26.5,44.5,57.6,132.2,106.9,203.2,115.5,0,0,0,0,0,0,0,0,0,0,0,0-11.5,14.6-34.2,19.7-53.9,18.7-35.5-1.7-50.2-10-76.2-20.7h0c-31.4-12.9-69.8-38.5-78.6-70.2-1.5-5.3-2.4-11.2-2.5-16.9Z"/>
        <path class="cls-3" d="M831,514.1h11.6c3.7,0,6.5,1.2,8.6,2.4,16.5-6.6,30-13.9,41.2-19.9,9.4-5,11.7-12.2,13.8-12.1.3,0,.6.1.9.4,1.9,1.9,4.4,7,6.7,14,.4,1.5.9,3.1,1.3,4.6-9.7,2.4-19.8,5.5-29.9,9.4-10.3,4-20.5,8-30.5,12.1,0,0,0,0,0,0,0,0,0,0-.1,0-1.1-1.1-2.2-2.2-3.3-3.3l-10.4,12.8c.6.6,1.2,1.2,1.9,1.9l7.8,8,10.3-4.3c10.8-4.5,19.3-7.9,27.2-10.9h0l2.8-1.1c9.7-3.7,19-6.6,27.9-8.7l16-3.8-3.8-16c-.5-2.1-1.1-4.2-1.8-6.1-4.7-14.5-9.2-18.9-10.6-20.4-3.4-3.4-7.8-5.3-12.5-5.3-8.7,0-13.5,6-15.8,8.9-1.5,1.9-3,3.8-5.8,5.3-11.4,6.2-25.6,13.8-43.1,20.6l-24.4,9.4,11,10.3,2.9-8.3Z"/>
        <path class="cls-3" d="M505.5,724c19.2,14.5,42.8,27.8,68.5,38.6h.1c0,.1,3.1,1.4,3.1,1.4,44.4,18.1,58.1,19.1,62.6,19.4,1.4,0,2.8.1,4.1.1h0c20,0,37.2-11,45.8-29.4,12.3-26.2,5.6-60.5-16.9-87.6l-6.1-7.4-9.4,1.7c-7.4,1.4-14.4,2-20.8,2-9,0-16.9-1.4-23.6-4-16.2-6.5-31.1-19.4-41-35.3-7.3-11.7-11.5-24.5-12.3-36.8l-1.1-17.1-17,1.8c-20.9,2.2-39.1,7.8-54.1,16.5-30.9,18-42.4,47.1-30.5,77.7,7.8,20.3,24.2,40,48.7,58.5ZM495.6,602.1c12.5-7.3,28.6-12.3,47.5-14.3,0,0,0,0,0,0,0,0,0,0,0,0,1,15.4,6.3,30.8,14.8,44.5,2.8,4.6,6.1,9,9.6,13.1,10.7,12.5,24.2,22.7,39.2,28.7,15.9,6.4,34.6,6.4,53.4,2.9,0,0,0,0,0,0,0,0,0,0,0,0,34,40.7,19.4,92.7-19.3,90-13.9-1-42.1-11.9-57.6-18.2-34-13.9-69.2-34.6-91.6-59-8.8-9.6-15.7-19.7-19.7-30.2-10-25.8,2.1-45.1,23.5-57.6Z"/>
        <path class="cls-3" d="M472.5,1015.5h0c13.5,0,24.5-2.7,32.9-8.1,10.3-6.5,16.3-16.6,18.2-30.7l2.3-16.6-16.6-1.9c-24.7-2.9-38.8-8.8-60.3-17.8-3.1-1.3-6.3-2.6-9.7-4-15.9-6.6-30.6-14.5-43.5-23.5l-4.3-2.9h-14.5l-4.8,8c-7.7,13-8.3,29.1-1.7,44,14.1,32,64.1,53.5,101.9,53.5ZM386.3,926.2s0,0,.1,0h0c1.7,1.2,3.5,2.4,5.3,3.6,12.6,8.2,26.5,15.5,41.2,21.5,26.8,11.1,43.5,19.4,74.3,23h0s0,0,0,0c0,0,0,0,0,0-1.1,8.2-4,14.8-10.7,19-21.1,13.5-75.1.9-100.4-23.6-4.7-4.5-8.4-9.5-10.7-14.7-4.3-9.7-4.4-20.3.7-29Z"/>
        <path class="cls-3" d="M619.8,641.3l3,1.1h.5c3.9,1.1,8.2,1.6,13.1,1.6h0c6.6,0,14.4-1,23.1-3,22.7-5.1,44.5-15.4,58.7-23.2l.9-.5.8-.6c28.1-19.9,57.8-37.5,90.9-53.8l22.7-11.2-19.4-16.2c-9.3-7.7-18.2-13.5-27.4-17.7-12.7-5.9-26.1-8.8-40.8-8.8s-21.1,1.5-32.6,4.3c-5.5,1.4-16,3.9-24.4,5.9-21,5-27.7,6.8-74.5,21.8-14,4.5-37.2,16.1-35.8,43.9,1.2,23.2,19,47.4,41.3,56.2ZM619.3,556.8c47.5-15.2,53.2-16.6,73.3-21.4.9-.2,1.8-.4,2.7-.6,4.9-1.2,10.2-2.4,14.6-3.5,2.9-.7,5.4-1.3,7.3-1.8,22.2-5.6,40.3-4.8,55.9.8,2.3.8,4.5,1.7,6.6,2.7,8.2,3.7,16,9,23.8,15.4-33.2,16.4-64.1,34.6-93.1,55.1-3.5,1.9-7.2,3.8-10.8,5.5-12.7,6.2-25.9,11.4-38.4,14.7-1.8.5-3.5.9-5.2,1.3-7.1,1.6-13.6,2.5-19.1,2.6-4.3,0-8-.5-10.9-1.6h0c-15.7-6.2-30.1-24.6-31-41.8-.7-15.5,11.1-23.1,24.4-27.4Z"/>
        <path class="cls-3" d="M279.7,1202.4l282.1,213.3,35.8-51.2-279.4-210.6-38.5,48.5ZM321.1,1176.6l.8.6,253.2,190.9-16.9,24.2h0,0s-255.1-192.8-255.1-192.8h0s0,0,0,0l18.1-22.8h0Z"/>
        <polygon class="cls-3" points="558 1392.3 558.1 1392.3 558 1392.2 558 1392.3"/>
        <path class="cls-3" d="M885.2,1364.5l35.8,51,291.8-220.3-36.7-50.1-290.9,219.4ZM1190,1191.9l-265.3,200.3-16.9-24.1h0s0,0,0,0l264.9-199.8,17.3,23.6h0s0,0,0,0Z"/>
        <path class="cls-3" d="M1151.5,1139.8l-12.7-17.3c-15.2-20.6-29.5-40.1-41.7-62.3l-9.6-17.3-15.2,12.5c-9.2,7.6-16.7,13.4-22.2,17.3l-160.3,113.2c-20.3,14.3-41.1,24.4-65.6,31.6l-27.6,8.2,21.1,19.6c16.6,15.4,33.1,39.9,47.7,61.4,4.3,6.3,8.3,12.3,12.3,18.1l9.8,13.9,264-199.1ZM828.9,1233.4c4.2-1.3,8.5-2.6,12.7-4.1,4.3-1.5,8.6-3.2,12.9-5,2.9-1.2,5.8-2.5,8.7-3.9,2.9-1.4,5.9-2.8,8.8-4.4,7.4-3.9,14.9-8.3,22.5-13.4,1.5-1,3.1-2.1,4.6-3.2l160.3-113.2c1.7-1.2,3.6-2.6,5.6-4.1,1.3-1,2.6-2,4.1-3.1.4-.3.8-.7,1.3-1,1.2-.9,2.5-1.9,3.7-3,2.7-2.1,5.5-4.4,8.5-6.9h0s0,0,0,0c13.7,24.6,29.5,45.7,46,68.2l-237.5,179.1h0s0,0,0,0c-18.2-26-39.4-60.8-62.3-82.1Z"/>
        <path class="cls-3" d="M1027.8,1065h0c0,0,11.2-7.8,11.2-7.8,20.8-14.7,42.2-33.8,61.1-50.8,3-2.7,5.9-5.3,8.8-7.9,23.4-20.8,39.2-47.6,43.2-73.5,5.3-33.7-10.2-57.1-41.2-62.6h-.6c0,0-.6-.2-.6-.2-5.6-.6-7.5-5.2-8-6.6-.7-2.2-1.3-6.3,2.5-9.9,13-12.2,22.5-39.2,12.4-69.7-6.1-18.4-17.8-29.8-32.2-31.5h-1.3c0-.1-1.3,0-1.3,0-.1,0-.3,0-.4,0-1.9,0-3.6-.6-5.3-1.6-2.1-1.4-3.6-3.6-4.1-6.1-.5-2.5,0-5,1.4-7.1,6.9-10.1,11.1-20.2,12.7-29.9,3.1-19.4-4.7-36.5-21.9-48.1-9.6-6.5-21.4-10.9-35.3-13.2h-.4c0,0-.4-.1-.4-.1-2.9-.3-5.4-2-7-4.4-.9-1.4-2.2-4.4-.9-8.1,7.4-21.1,7.7-40.5.9-56.1-6.3-14.7-18.6-25.6-35.6-31.6-9.9-3.5-19.8-5.1-30.2-5.1-20.3,0-38.9,6.6-56.9,12.9l-.8.3c-71.2,25.1-133.7,59.2-191.1,104.1l-13.3,10.7,6.9,12.2c12.3,21.8,16.9,45.1,13.1,67.4-3.3,19.5-12.9,36.4-27.2,47.7l-8.4,6.6,2.6,10.3c8.9,35-10.1,68-46.2,80.2l-9.4,3.2-1.6,9.8c-5.7,35.8-38.4,54.2-67.1,59.5l-12.6,2.3-.8,12.8c-2.2,33.7-22.5,55.8-55.7,60.7-4.5.7-9.4,1-14.4,1-13.9,0-29.5-2.7-45.1-7.7l-12.3-4-6.7,11.1c-15.9,26.2-35.8,51-55.1,75-4.4,5.5-8.9,11.1-13.3,16.6l-10.4,13.2,263.8,198.9,48-60.9c39.6-50.2,80.7-57.8,128.4-66.6,33.1-6.1,70.6-13,108.8-39.8l149.1-105.3ZM767.2,1194.1h0c-49.4,9-95,17.5-138.3,72.5l-38,48.3h-.1c0,0,0,0,0,0l-237.5-179.1c24.1-30.4,49.5-60.2,69.6-93.3,23.3,7.5,46.6,10.3,66.9,7.3,40.8-6,67-34,69.7-75.9,40-7.3,74.1-33.6,80.4-73,42.7-14.5,68.3-54.6,56.8-99.8,17.8-14.1,29.3-34.6,33.2-57.9,4.6-27.1-1.3-54.2-15-78.3l2.2-1.8c53.9-42.2,113.8-75.9,186.4-101.6,25.8-9.1,49.6-17.6,77-8,2.2.8,4.3,1.6,6.3,2.6,8.7,4.2,15.8,10.7,19.8,20,4.9,11.2,4.9,26.2-1.3,44.2-3.7,10.8,0,22,8,28.6,3.7,3,8.2,5,13.2,5.6,8.8,1.5,16.5,3.9,22.9,7.2,2.2,1.1,4.2,2.3,6.1,3.6,11.3,7.6,17.1,18.2,14.9,31.9-1.1,7-4.4,14.8-10,23.2-8,11.9-4.9,28,7,36.1.6.4,1.1.7,1.7,1.1,4.3,2.4,9,3.5,13.6,3.3,2,.2,4,.9,5.8,1.9,17.4,9.8,23.2,54,4.9,71-14.8,13.8-8.4,37.3,9,43.5,1.8.6,3.7,1.1,5.8,1.3,4.6.8,8.5,2.1,11.9,3.8,14.7,7.2,19,21.9,16.1,40.2-3.3,21.1-16.4,44.7-37.9,63.8-21.3,19-45.3,41.1-68.4,57.5l-160.3,113.2c-35,24.7-69.6,31.1-102.3,37.1Z"/>
        <path class="cls-3" d="M828,522.4l-.9,2.7c-1.2,3.3-2.9,11.8,6.1,19l7.6-9.4c-1.7-1.7-3.2-3.2-4.7-4.6l-8.1-7.6Z"/>
        <path class="cls-3" d="M843.5,531.2c-1.4-1.2-.8-.7,0,0h0Z"/>
        <path class="cls-3" d="M847.4,518c1.3-.5,2.5-1,3.8-1.5-2-1.2-4.8-2.4-8.6-2.4h-11.6l-2.9,8.3,8.1,7.6c1.5,1.4,3,2.9,4.7,4.6l10.4-12.8c-1.3-1.3-2.6-2.5-3.9-3.7ZM843.5,531.2c-.8-.7-1.4-1.2,0,0-1.5-1.2-.8-.7,0,0Z"/>
        <path class="cls-3" d="M647.2,819c-25.8.7-56.5-11.2-82.8-21.9,26.3,10.7,57,22.7,82.8,21.9Z"/>
        <path class="cls-3" d="M426.7,685.2c-16.9,6.8-24.3,18.1-24.3,31.2,0-13.1,7.4-24.3,24.3-31.2Z"/>
        <path class="cls-3" d="M563.8,796.9c-58.9-24.1-114.9-63.4-137.1-111.7,22.2,48.3,78.2,87.7,137.1,111.7Z"/>
        <path class="cls-3" d="M409.7,741.6c-.2-.4-.4-.7-.6-1.1.2.4.4.7.6,1.1,31.4,57.8,130.2,112.1,190.6,113.1-60.4-1-159.2-55.3-190.6-113.1Z"/>
        <path class="cls-3" d="M452.7,903.6h0c25.9,10.6,40.7,18.9,76.2,20.6,19.7,1,42.4-4.1,53.9-18.7,0,0,0,0,0,0-11.5,14.6-34.2,19.6-53.8,18.7-35.5-1.7-50.2-9.9-76.2-20.7-31.4-13-69.7-38.6-78.6-70.3h0c-1.5-5.3-2.4-11-2.5-16.8,0,5.8,1,11.6,2.5,16.9,8.8,31.7,47.2,57.3,78.6,70.3Z"/>
        <path class="cls-3" d="M892.5,496.6h0c9.3-5,11.6-12,13.7-12.1-2.1,0-4.4,7.1-13.8,12.1-11.2,6.1-24.7,13.3-41.2,19.9,0,0,0,0,0,0,16.6-6.7,30.1-13.9,41.3-20Z"/>
        <path class="cls-3" d="M851.2,521.8c1.1,1.1,2.2,2.2,3.3,3.3,0,0,0,0,.1,0-1.1-1.1-2.2-2.2-3.3-3.4h0Z"/>
        <path class="cls-3" d="M851.2,521.8h0c-1.2-1.3-2.5-2.6-3.8-3.7,1.3-.5,2.5-1,3.7-1.5,0,0,0,0,0,0-1.3.5-2.5,1-3.8,1.5,1.3,1.2,2.6,2.5,3.9,3.7Z"/>
        <path class="cls-3" d="M491.9,689.9c-8.7-9.5-15.5-19.6-19.6-30.1-10-25.9,2.1-45.1,23.5-57.6h0c12.4-7.3,28.5-12.4,47.5-14.4,0,0,0,0,0,0-19,2-35,7-47.5,14.3-21.4,12.4-33.4,31.8-23.5,57.6,4.1,10.5,10.9,20.7,19.7,30.2Z"/>
        <path class="cls-3" d="M606.8,674.2c15.9,6.3,34.5,6.4,53.4,2.9,0,0,0,0,0,0-18.9,3.4-37.6,3.4-53.4-2.9-15-6-28.6-16.2-39.2-28.7,10.6,12.5,24.2,22.7,39.3,28.8Z"/>
        <path class="cls-3" d="M496.6,993.5c-21.1,13.5-75,.9-100.3-23.5,25.2,24.5,79.2,37.1,100.4,23.6,6.7-4.3,9.6-10.9,10.7-19,0,0,0,0,0,0-1.1,8.1-4,14.7-10.7,19Z"/>
        <path class="cls-3" d="M386.4,926.3h0c1.8,1.2,3.5,2.4,5.3,3.6-1.8-1.2-3.6-2.4-5.3-3.6Z"/>
        <path class="cls-3" d="M699.5,609c-12.7,6.1-25.9,11.4-38.4,14.7,12.5-3.3,25.7-8.6,38.4-14.7Z"/>
        <path class="cls-3" d="M773.1,530.2c-15.6-5.6-33.7-6.3-55.9-.8-1.9.5-4.4,1.1-7.3,1.8,2.9-.7,5.4-1.3,7.3-1.8,22.2-5.5,40.2-4.8,55.8.8Z"/>
        <path class="cls-3" d="M625.8,626h0c2.9,1.1,6.6,1.7,10.9,1.6-4.3,0-7.9-.5-10.8-1.6-15.7-6.3-30.1-24.7-31-41.8-.7-15.5,11.1-23.1,24.4-27.4h0c47.5-15.2,53.2-16.6,73.3-21.4.9-.2,1.7-.4,2.6-.6-.9.2-1.8.4-2.7.6-20.1,4.8-25.9,6.2-73.3,21.4-13.3,4.3-25.2,11.8-24.4,27.4.9,17.2,15.2,35.6,31,41.8Z"/>
        <polygon class="cls-3" points="558 1392.2 558.1 1392.3 575 1368.1 321.9 1177.2 575 1368.1 558 1392.2"/>
        <polygon class="cls-3" points="303 1199.4 321.1 1176.6 303 1199.4 303 1199.4"/>
        <polygon class="cls-3" points="924.7 1392.2 1190 1191.9 1189.9 1191.8 924.7 1392.1 924.7 1392.2"/>
        <polygon class="cls-3" points="907.7 1368.1 924.7 1392.2 907.8 1368 907.7 1368.1"/>
        <path class="cls-3" d="M1065.1,1082.2c-2,1.5-3.9,2.9-5.6,4.1l-160.3,113.2,160.3-113.2c1.7-1.2,3.6-2.6,5.6-4.1Z"/>
        <path class="cls-3" d="M1065.1,1082.2c1.3-1,2.6-2,4.1-3.1-1.4,1.1-2.8,2.1-4.1,3.1Z"/>
        <path class="cls-3" d="M891.2,1315.5c-18.2-26-39.4-60.8-62.3-82.1h0c4.2-1.3,8.5-2.6,12.7-4.1-4.3,1.5-8.5,2.9-12.7,4.1,22.9,21.3,44.1,56.1,62.3,82.1h0Z"/>
        <path class="cls-3" d="M872.1,1216.1c7.4-3.9,14.9-8.3,22.5-13.4-7.6,5.1-15.1,9.6-22.5,13.4Z"/>
        <path class="cls-3" d="M1082.8,760.9c2,.2,3.8.9,5.6,1.9-1.8-1-3.7-1.7-5.8-1.9-4.6.2-9.3-.9-13.6-3.3,4.3,2.5,9.1,3.5,13.8,3.3Z"/>
        <path class="cls-3" d="M1049.3,661.7c-6.4-3.3-14.1-5.7-22.9-7.2-5.1-.6-9.6-2.6-13.2-5.6,3.7,3,8.3,5.1,13.4,5.7,8.7,1.5,16.3,3.9,22.7,7.1Z"/>
        <path class="cls-3" d="M422.9,1042.5c23.3,7.5,46.6,10.3,66.9,7.3,40.8-6,67-34,69.7-75.9,40-7.3,74.1-33.7,80.4-73,42.8-14.5,68.4-54.6,56.8-99.8,17.8-14.1,29.3-34.6,33.2-57.9,4.6-27-1.3-54.2-15-78.3l2.2-1.8c53.9-42.2,113.8-75.9,186.4-101.6,25.8-9.1,49.5-17.6,77-8,2.1.7,4.2,1.6,6.2,2.6-2-1-4.1-1.9-6.3-2.6-27.4-9.6-51.2-1-77,8-72.6,25.6-132.5,59.4-186.4,101.6l-2.2,1.8c13.6,24.1,19.6,51.2,15,78.3-3.9,23.2-15.4,43.8-33.2,57.9,11.5,45.2-14.1,85.3-56.8,99.8-6.3,39.4-40.4,65.7-80.4,73-2.7,41.8-28.9,69.9-69.7,75.9-20.2,3-43.6.2-66.9-7.3-20.1,33.1-45.5,63-69.6,93.3l237.5,179.1h0s-237.4-179-237.4-179c24.1-30.4,49.4-60.1,69.6-93.3Z"/>
        <path class="cls-3" d="M1120,882.3c-3.4-1.7-7.4-2.9-11.9-3.8-2-.2-4-.7-5.8-1.3,1.9.7,3.8,1.1,5.9,1.4,4.5.8,8.4,2,11.8,3.7Z"/>
        <path class="cls-4" d="M843.5,531.2c-.8-.7-1.5-1.2,0,0h0Z"/>
      </g>
    </g>
  </g>
</svg>