<?xml version="1.0" encoding="UTF-8"?>
<svg xmlns="http://www.w3.org/2000/svg" version="1.1" viewBox="0 0 1482.3 1500">
  <defs>
    <style>
      .cls-1 {
        fill: #eedfcd;
      }

      .cls-2 {
        fill: #42210b;
      }

      .cls-3 {
        fill: #333;
      }
    </style>
  </defs>
  <!-- Generator: Adobe Illustrator 28.7.1, SVG Export Plug-In . SVG Version: 1.2.0 Build 142)  -->
  <g>
    <g id="Layer_1">
      <g>
        <path class="cls-1" d="M611,541.5c3.6-6.3,5.2-13.9,4.3-22.6-34.6,1-76-15.1-111.2-29.5-78.6-32.1-153.4-84.6-183-149-36.1,14.6-39.6,44.1-22.7,75.2,55.9,102.8,271.5,197.3,312.6,125.9Z"/>
        <path class="cls-1" d="M355.8,631.6c34.6,14.3,54.3,25.3,101.6,27.6,26.3,1.3,56.6-5.5,71.9-25-94.7-11.5-211.7-77.2-271-154.1-12.9,15.6-12.7,38.9-7.4,57.8,11.8,42.3,63,76.5,104.9,93.8Z"/>
        <path class="cls-1" d="M932.6,110.6c13.6-5.2,26.9-9.4,39.9-12.5-.5-2.1-1.1-4.2-1.8-6.2-3-9.3-6.3-16.1-8.9-18.7-3.3-3.3-5.3,8-19.5,15.6-16.1,8.7-35.6,19.2-60,28.6,3.2,3,6.4,6.2,9.5,9.4,13.3-5.5,26.9-11,40.7-16.2Z"/>
        <path class="cls-1" d="M530.1,425.2c20.6,8.4,58.3,23,76.8,24.3,51.7,3.7,71-65.6,25.7-120-25.2,4.6-50.1,4.6-71.3-3.9-26.7-10.7-50-31.4-65.2-55.9-11.3-18.2-18.4-38.8-19.7-59.3-25.3,2.7-46.7,9.4-63.4,19.1-28.5,16.6-44.6,42.4-31.3,76.8,19.2,49.8,85.3,93,148.3,118.8Z"/>
        <path class="cls-1" d="M267.3,662c-6.9,11.6-6.7,25.9-1,38.7,19.8,44.8,114.7,72.3,148.1,51,9-5.7,12.8-14.5,14.3-25.4-41.1-4.8-63.3-15.9-99.1-30.7-22.5-9.3-43.5-20.6-62.2-33.6Z"/>
        <path class="cls-1" d="M586.8,261.4c8.8,3.5,23.2,2.5,39.9-1.3,23.4-5.3,49.3-16.1,72.7-28.8,38.8-27.5,79.9-51.7,124.2-73.5-10.3-8.6-20.8-15.6-31.7-20.6-22.8-10.6-49.4-13.1-83.3-4.6-7.2,1.8-21.3,5.2-32.8,7.9-26.8,6.4-34.5,8.3-97.8,28.6-17.8,5.7-33.6,15.8-32.6,36.5,1.2,23,20.3,47.5,41.3,55.8Z"/>
        <polygon class="cls-1" points="156.1 1026.3 496.4 1283.6 519 1251.3 180.2 995.9 156.1 1026.3"/>
        <polygon class="cls-1" points="962.8 1251.3 985.4 1283.5 1339.3 1016.3 1316.2 984.8 962.8 1251.3"/>
        <path class="cls-1" d="M1196.2,851.3c-12.5,10.3-23,18.5-30.9,24.1l-213.8,151c-32.7,23.1-63.9,36.4-93.9,45.3,30.6,28.4,58.8,74.8,83.1,109.5l316.8-238.9c-22-30-43.1-58.2-61.3-91Z"/>
        <path class="cls-1" d="M1125.4,818.7c30.9-21.8,62.9-51.4,91.3-76.7,28.7-25.5,46.2-56.9,50.6-85.1,4.7-30.1-5-52.9-37.2-58.6-29-3.1-41.8-39.4-19.9-59.8,26.8-25,14.9-93.9-14-97.2-7.1.3-14.3-1.6-20.7-5.9-15.9-10.7-20.1-32.2-9.4-48.1,7.5-11.1,11.9-21.6,13.4-31,2.9-18.3-4.9-32.5-19.9-42.6-9.9-6.7-22.8-11.6-38.4-14.2-21.8-2.6-35.9-24.8-28.6-45.7,8.4-24.1,8.3-44,1.8-59-6.6-15.3-19.2-24.7-34.6-30.1-36.6-12.8-68.3-1.4-102.7,10.7-96.9,34.2-176.8,79.2-248.7,135.5l-3,2.4c18.2,32.1,26.1,68.3,20,104.4-5.2,31-20.5,58.4-44.3,77.2,15.3,60.3-18.8,113.8-75.8,133.1-8.4,52.6-53.9,87.6-107.2,97.4-3.6,55.8-38.6,93.2-93,101.2-27,4-58.1.3-89.2-9.7-26.8,44.2-60.7,84-92.8,124.5l316.8,238.9,50.7-64.4c57.8-73.4,118.7-84.7,184.5-96.8,43.5-8,89.7-16.6,136.4-49.5l213.8-151Z"/>
        <path class="cls-2" d="M1422,982.2c-6.5-8.4-17.7-11-27-7.1l-43.7-59.5c-8.7-11.9-23.6-16.6-37-13-23.7-32.3-45.5-61.5-64.2-97.5,4.2-3.7,8.5-7.5,12.8-11.3,40.8-36.3,66.1-83.1,72.9-126.3,7.5-47.5-6.9-95.1-49.3-121,20.6-52.8,4.7-126.1-43.4-159.1,2.2-6.8,3.9-13.6,4.9-20.4,7.1-44.8-12.1-85.5-49.5-110.7-9.3-6.3-19.8-11.7-31.5-16,3.8-27.2.4-51.7-8.7-72.9-20.3-47.2-66.8-72.8-116.4-76.1-1.3-7.1-3.1-14.1-5.2-20.5-6.2-19.4-15.9-36.4-25.1-45.8-33.3-34.1-59.2-20.2-101.9,2.9-24.3,13.1-57.5,31.1-105.3,39.8-32.7-11.3-69.1-13-112.2-2.3-20.7,5.2-27,6.7-32.2,7.9-29.7,7.1-38.2,9.1-102.9,29.9-25.8,8.3-44.7,21.1-57.8,36.7-32.5.4-61.9,5.5-87.4,14.5-52.4,18.5-98.2,58.1-103.5,117.3-68.1,21.3-102.4,78-83.6,145.1-16.7,12.5-28.4,28.2-35.9,45.4-22.5,51.2-7.8,110.3,27,153-14.5,18.3-22.3,41-22.8,64.3-.9,43.2,22,81.2,60.2,107.7-25,40.3-57.4,77.9-86.9,115.1-13.1-3-27.3,1.8-35.7,13.3l-43.7,59.5c-9.3-3.9-20.5-1.3-27,7.1l-52.9,67.5c-3.9,4.1-6.2,9.7-6.2,15.8v409.4c0,12.8,10.4,23.1,23.1,23.1h424.1c7.6,0,15-3.8,19.4-10.7l86.1-133.8c6.1-8.8,5.2-20.6-1.8-28.4l42.5-60.6c9.4-12.5,9.1-29.2.4-41.2l50.8-64.5c34.5-43.8,73.5-57.5,115.6-66.4,64.8,29.2,86.8,76.5,125.7,131.9-8,11.9-8.1,28.1,1.1,40.2l42.5,60.6c-6.9,7.8-7.9,19.6-1.8,28.4l86.1,133.8c4.4,6.9,11.8,10.6,19.4,10.6h424.1c12.8,0,23.1-10.3,23.1-23.1v-409.4c0-6.1-2.4-11.6-6.2-15.8l-52.9-67.5ZM942.4,88.8c14.2-7.6,16.2-18.9,19.5-15.6,2.5,2.6,5.9,9.4,8.9,18.7.6,2,1.2,4.1,1.8,6.2-13,3.2-26.4,7.3-39.9,12.5-13.8,5.3-27.4,10.7-40.7,16.2-3.1-3.2-6.3-6.4-9.5-9.4,24.4-9.4,43.9-19.9,60-28.6ZM877.1,135h0c-1.9-1.6-1.1-.9,0,0ZM578.1,169.1c63.3-20.3,71-22.1,97.8-28.6,11.5-2.8,25.6-6.1,32.8-7.9,33.9-8.4,60.5-5.9,83.3,4.6,10.9,5,21.4,12,31.7,20.6-44.3,21.9-85.5,46.1-124.2,73.5-23.4,12.6-49.3,23.4-72.7,28.8-16.8,3.8-31.1,4.8-39.9,1.3-21-8.4-40.1-32.9-41.3-55.8-1-20.7,14.8-30.8,32.6-36.5ZM413.1,229.6c16.6-9.7,38.1-16.4,63.4-19.1,1.3,20.6,8.4,41.1,19.7,59.3,15.2,24.5,38.4,45.2,65.2,55.9,21.2,8.4,46.1,8.5,71.3,3.9,45.3,54.3,25.9,123.7-25.7,120-18.5-1.3-56.2-15.9-76.8-24.3-63-25.7-129.1-69-148.3-118.8-13.3-34.5,2.8-60.2,31.3-76.8ZM321.1,340.4c29.6,64.4,104.4,117,183,149,35.2,14.4,76.6,30.6,111.2,29.5.9,8.7-.7,16.3-4.3,22.6-41,71.4-256.7-23.1-312.6-125.9-16.9-31.1-13.4-60.5,22.7-75.2ZM250.9,537.8c-5.3-19-5.5-42.2,7.4-57.8,59.3,76.9,176.3,142.6,271,154.1-15.3,19.5-45.6,26.3-71.9,25-47.3-2.3-67-13.2-101.6-27.6-41.9-17.3-93-51.5-104.9-93.8ZM428.6,726.2c-1.4,10.9-5.3,19.7-14.3,25.4-33.3,21.4-128.3-6.2-148.1-51-5.7-12.9-5.9-27.1,1-38.7,18.7,12.9,39.7,24.3,62.2,33.6,35.8,14.8,58,25.9,99.1,30.7ZM496.4,1283.6l-340.3-257.2,24.1-30.5,338.7,255.4-22.6,32.3ZM775.3,1019.2c-65.9,12.1-126.7,23.4-184.5,96.8l-50.7,64.4-316.8-238.9c32.1-40.5,65.9-80.2,92.8-124.5,31.1,10,62.1,13.7,89.2,9.7,54.4-8,89.4-45.4,93-101.2,53.3-9.8,98.8-44.9,107.2-97.4,57.1-19.3,91.2-72.8,75.8-133.1,23.7-18.8,39.1-46.2,44.3-77.2,6.1-36-1.8-72.3-20-104.4l3-2.4c71.9-56.3,151.8-101.3,248.7-135.5,34.4-12.1,66-23.5,102.7-10.7,15.4,5.4,28.1,14.8,34.6,30.1,6.5,14.9,6.6,34.9-1.8,59-7.3,21,6.8,43.2,28.6,45.7,15.6,2.6,28.5,7.5,38.4,14.2,15.1,10.2,22.8,24.3,19.9,42.6-1.5,9.4-5.9,19.8-13.4,31-10.7,15.9-6.5,37.4,9.4,48.1,6.3,4.3,13.6,6.2,20.7,5.9,28.9,3.3,40.8,72.2,14,97.2-21.9,20.4-9.1,56.6,19.9,59.8,32.2,5.7,41.9,28.5,37.2,58.6-4.4,28.2-21.9,59.6-50.6,85.1-28.4,25.3-60.4,54.8-91.3,76.7l-213.8,151c-46.7,33-92.9,41.5-136.4,49.5ZM857.6,1071.7c30-8.9,61.2-22.2,93.9-45.3l213.8-151c7.9-5.6,18.4-13.8,30.9-24.1,18.3,32.8,39.3,61,61.3,91l-316.8,238.9c-24.3-34.7-52.5-81.1-83.1-109.5ZM985.4,1283.5l-22.6-32.3,353.4-266.5,23.1,31.5-353.9,267.2Z"/>
        <path class="cls-3" d="M877.1,135c-1.1-.9-2-1.6,0,0h0Z"/>
      </g>
    </g>
  </g>
</svg>