<?xml version="1.0" encoding="UTF-8"?>
<svg xmlns="http://www.w3.org/2000/svg" version="1.1" viewBox="0 0 1500 867.9">
  <defs>
    <style>
      .cls-1 {
        fill: #f15a24;
      }

      .cls-2 {
        fill: #eedfcd;
      }

      .cls-3 {
        fill: #fff;
      }

      .cls-4 {
        fill: #42210b;
      }

      .cls-5 {
        fill: #333;
      }
    </style>
  </defs>
  <!-- Generator: Adobe Illustrator 28.7.1, SVG Export Plug-In . SVG Version: 1.2.0 Build 142)  -->
  <g>
    <g id="Layer_1">
      <g id="Layer_1-2" data-name="Layer_1">
        <path class="cls-3" d="M783.1,362.6c1.7.7,3.4,1.5,5.1,2.4l22.4-14.3,8.4,1.5c-4.1-5.9-7.6-10.2-12.8-13.5-6.2,1.8-10.8,4.5-15.1,10l-8,10.1v3.7h0ZM748.5,322.2l3.4-4.3c18.6-23.7,39.1-27.5,57.2-30.8,10.6-2,19.7-3.6,28.8-10.1l55.1-38.9c6.1-4.3,12.7-10.2,19-15.8,1.1-1,2.1-1.9,3.2-2.8,4-3.5,6.3-7.3,7.3-10.3-7.4-2.4-13.4-8.3-15.9-15.9-2.9-8.8-.9-18.1,5.4-24.8-2-.7-3.9-1.7-5.7-2.9-5.5-3.7-9.3-9.4-10.5-15.9-1.1-5.7-.2-11.6,2.6-16.7-7.1-1.1-13.3-5.3-17.2-11.4-4-6.4-4.9-14.2-2.4-21.4.4-1.2.6-2.2.7-2.8-.8-.2-1.7-.3-2.6-.3-3.3,0-7.5,1.5-12.4,3.2h-.3c-18.6,6.7-35.3,15.2-50.7,26,2.3,7.9,2.8,16.1,1.4,24.2-1.4,8.6-5,16.5-10.3,22.9.6,16.6-8.1,31.9-23.1,40.2-4.7,11.7-14.4,21.1-27.1,26.2-5,15.7-18,26.7-35.4,29.3-2.6.4-5.3.6-8.1.6s-6.6-.3-10-.8c-2.7,3.8-5.5,7.5-8.4,11.1l56,42.2h0Z"/>
        <polygon class="cls-4" points="633.1 226.1 714.6 226.1 662.5 278.2 688.4 304 627.5 304 633.1 226.1"/>
        <rect class="cls-4" x="714.6" y="224.2" width="211.5" height="211.5"/>
        <path class="cls-2" d="M769.6,179.7c.9-1.6,1.4-3.6,1.1-5.8-8.9.3-19.6-3.9-28.7-7.6-20.3-8.3-39.5-21.8-47.2-38.4-9.3,3.8-10.2,11.4-5.8,19.4,14.4,26.5,70,50.9,80.6,32.5h0Z"/>
        <path class="cls-2" d="M703.9,203c8.9,3.7,14,6.5,26.2,7.1,6.8.3,14.6-1.4,18.5-6.5-24.4-3-54.6-19.9-69.9-39.7-3.3,4-3.3,10-1.9,14.9,3.1,10.9,16.2,19.7,27,24.2h.1Z"/>
        <path class="cls-2" d="M852.5,68.7c3.5-1.3,6.9-2.4,10.3-3.2,0-.5-.3-1.1-.5-1.6-.8-2.4-1.6-4.2-2.3-4.8-.8-.9-1.4,2.1-5,4-4.2,2.2-9.2,5-15.5,7.4.8.8,1.6,1.6,2.5,2.4,3.4-1.4,6.9-2.8,10.5-4.2Z"/>
        <path class="cls-2" d="M748.8,149.7c5.3,2.2,15,5.9,19.8,6.3,13.3,1,18.3-16.9,6.6-30.9-6.5,1.2-12.9,1.2-18.4-1-6.9-2.8-12.9-8.1-16.8-14.4-2.9-4.7-4.7-10-5.1-15.3-6.5.7-12,2.4-16.3,4.9-7.3,4.3-11.5,10.9-8.1,19.8,4.9,12.8,22,24,38.2,30.6h0Z"/>
        <path class="cls-2" d="M681,210.8c-1.8,3-1.7,6.7-.2,10,5.1,11.5,29.6,18.6,38.2,13.1,2.3-1.5,3.3-3.7,3.7-6.6-10.6-1.2-16.3-4.1-25.6-7.9-5.8-2.4-11.2-5.3-16-8.7h-.1Z"/>
        <path class="cls-2" d="M763.4,107.5c2.3.9,6,.7,10.3-.3,6-1.4,12.7-4.2,18.7-7.4,10-7.1,20.6-13.3,32-19-2.7-2.2-5.4-4-8.2-5.3-5.9-2.7-12.7-3.4-21.5-1.2-1.9.5-5.5,1.3-8.5,2-6.9,1.7-8.9,2.1-25.2,7.4-4.6,1.5-8.7,4.1-8.4,9.4.3,5.9,5.2,12.2,10.6,14.4h.2Z"/>
        <polygon class="cls-2" points="652.4 304.7 740.1 371 745.9 362.7 658.6 296.9 652.4 304.7"/>
        <polygon class="cls-2" points="860.3 362.7 866.2 371 957.4 302.1 951.4 294 860.3 362.7"/>
        <path class="cls-2" d="M920.5,259.6c-3.2,2.6-5.9,4.8-8,6.2l-55.1,38.9c-8.4,6-16.5,9.4-24.2,11.7,7.9,7.3,15.1,19.3,21.4,28.2l81.7-61.6c-5.7-7.7-11.1-15-15.8-23.5h0Z"/>
        <path class="cls-2" d="M902.3,251.2c8-5.6,16.2-13.2,23.5-19.8,7.4-6.6,11.9-14.7,13.1-21.9,1.2-7.8-1.3-13.6-9.6-15.1-7.5-.8-10.8-10.1-5.1-15.4,6.9-6.5,3.8-24.2-3.6-25.1-1.8,0-3.7-.4-5.3-1.5-4.1-2.8-5.2-8.3-2.4-12.4,1.9-2.9,3.1-5.6,3.4-8,.7-4.7-1.3-8.4-5.1-11-2.6-1.7-5.9-3-9.9-3.7-5.6-.7-9.3-6.4-7.4-11.8,2.2-6.2,2.1-11.3.5-15.2-1.7-3.9-5-6.4-8.9-7.8-9.4-3.3-17.6-.4-26.5,2.8-25,8.8-45.6,20.4-64.1,34.9l-.8.6c4.7,8.3,6.7,17.6,5.2,26.9-1.3,8-5.3,15-11.4,19.9,3.9,15.6-4.8,29.3-19.6,34.3-2.2,13.6-13.9,22.6-27.6,25.1-.9,14.4-9.9,24-24,26.1-7,1-15,0-23-2.5-6.9,11.4-15.6,21.6-23.9,32.1l81.7,61.6,13.1-16.6c14.9-18.9,30.6-21.8,47.6-25,11.2-2.1,23.1-4.3,35.2-12.8l55.1-38.9-.2.2Z"/>
        <path class="cls-5" d="M838.2,75c-.3-.2-.5-.4,0,0h0Z"/>
        <path class="cls-4" d="M1431.7,474.6c0-29.4-13.9-57.4-38.3-76.7-25-19.9-60.2-30.3-101.7-30.3s-40.7,3.1-59.3,9h-41.1l29.5-105.4h-110.2l-17,21.9c-13.4,17.2-29.8,34.5-46.6,49.4l19.9-71.3h-110.2l-1.3,1.6c-1.5-.4-3-.4-4.5,0-6.1-8.3-11.7-15.8-16.6-25.1,1.1-1,2.2-1.9,3.3-2.9,10.5-9.4,17-21.4,18.8-32.6,1.9-12.3-1.8-24.5-12.7-31.2,5.3-13.6,1.2-32.5-11.2-41,.6-1.8,1-3.5,1.3-5.3,1.8-11.6-3.1-22-12.8-28.5-2.4-1.6-5.1-3-8.1-4.1,1-7,0-13.3-2.2-18.8-5.2-12.2-17.2-18.8-30-19.6-.3-1.8-.8-3.6-1.3-5.3-1.6-5-4.1-9.4-6.5-11.8-8.6-8.8-15.3-5.2-26.3.7-6.3,3.4-14.8,8-27.1,10.3-8.4-2.9-17.8-3.4-28.9-.6-5.3,1.3-7,1.7-8.3,2-7.6,1.8-9.8,2.4-26.5,7.7-6.6,2.1-11.5,5.4-14.9,9.5-8.4,0-16,1.4-22.5,3.7-13.5,4.8-25.3,15-26.7,30.2-17.5,5.5-26.4,20.1-21.5,37.4-4.3,3.2-7.3,7.3-9.3,11.7-5.8,13.2-2,28.4,7,39.4-1.8,2.2-3.1,4.8-4.1,7.4-8.7-35-40.6-66.9-99.6-66.9s-55.9,7.4-80.3,21.2c-12.3-10.9-27.6-18-44.5-20.3l18.6-72.1-63.4-27.1-142.3,29-.2,1.2h-18.8l-17,21.9c-21.5,27.7-54.1,54.7-72.5,60.1l-32.8,9.6-20.9,104.7h15.3l-10.4,38.6c-8.4,30.7-2.9,61.7,15.1,85.2,3.6,4.7,7.5,8.9,11.8,12.7l-25.3,113.7,28.9-2.1-54.1,204.5h344.3l2.2-8.1c14,8.2,33,14.6,58.3,14.6s48.9-5.6,70.8-17c17,12.4,37.7,19,60.6,19s44-6.5,66.6-19.5c17.5,11.4,39.3,17.5,63.8,17.5s50.4-6.2,73.1-18.9c18.9,13.6,42.7,20.9,69.3,20.9s55.3-7.8,81.4-23.3c19.4,15.1,44.4,23.3,72.5,23.3s65.2-10.9,95.6-32.4c20.4,17.2,53.6,32.4,107.3,32.4,96.6,0,169.5-57.6,169.5-134s-3.4-33-10.1-48.6c21.9-16,35.6-41.7,35.6-71.3h-.5ZM860.3,362.7l54.6-41.2c-16.6,17.2-34.9,33-52,44.9l-2.6-3.7h0ZM936.3,283l-81.7,61.6c-6.3-8.9-13.5-20.9-21.4-28.2,7.7-2.3,15.8-5.7,24.2-11.7l55.1-38.9c2-1.4,4.7-3.6,8-6.2,4.7,8.5,10.1,15.7,15.8,23.5h0ZM885.4,82.6c4,1.4,7.2,3.8,8.9,7.8,1.7,3.9,1.7,9-.5,15.2-1.9,5.4,1.8,11.1,7.4,11.8,4,.7,7.3,1.9,9.9,3.7,3.9,2.6,5.9,6.3,5.1,11-.4,2.4-1.5,5.1-3.4,8-2.8,4.1-1.7,9.6,2.4,12.4,1.6,1.1,3.5,1.6,5.3,1.5,7.4.8,10.5,18.6,3.6,25.1-5.7,5.3-2.4,14.6,5.1,15.4,8.3,1.5,10.8,7.4,9.6,15.1-1.1,7.3-5.7,15.4-13.1,21.9-7.3,6.5-15.6,14.1-23.5,19.8l-55.1,38.9c-12,8.5-23.9,10.7-35.2,12.8-17,3.1-32.7,6-47.6,25l-13.1,16.6-81.7-61.6c8.3-10.4,17-20.7,23.9-32.1,8,2.6,16,3.5,23,2.5,14-2.1,23-11.7,24-26.1,13.7-2.5,25.5-11.6,27.6-25.1,14.7-5,23.5-18.8,19.6-34.3,6.1-4.8,10.1-11.9,11.4-19.9,1.6-9.3-.5-18.6-5.2-26.9l.8-.6c18.5-14.5,39.1-26.1,64.1-34.9,8.9-3.1,17-6.1,26.5-2.8l.2-.2ZM735.9,367.8l-66.4-50.2,4.7-9,71.8,54.1-3.9,5.6c-2-.2-4.1-.4-6.1-.5h0ZM681,210.8c4.8,3.3,10.2,6.3,16,8.7,9.2,3.8,15,6.7,25.6,7.9-.4,2.8-1.4,5.1-3.7,6.6-8.6,5.5-33.1-1.6-38.2-13.1-1.5-3.3-1.5-7,.2-10h.1ZM855.1,63c3.6-2,4.2-4.9,5-4,.7.7,1.5,2.4,2.3,4.8.2.5.3,1.1.5,1.6-3.4.8-6.8,1.9-10.3,3.2-3.6,1.4-7.1,2.8-10.5,4.2-.8-.8-1.6-1.6-2.5-2.4,6.3-2.4,11.3-5.1,15.5-7.4ZM838.2,75h0c-.5-.4-.3-.2,0,0ZM761.2,83.7c16.3-5.2,18.3-5.7,25.2-7.4,3-.7,6.6-1.6,8.5-2,8.7-2.2,15.6-1.5,21.5,1.2,2.8,1.3,5.5,3.1,8.2,5.3-11.4,5.6-22,11.9-32,19-6,3.3-12.7,6-18.7,7.4-4.3,1-8,1.2-10.3.3-5.4-2.2-10.3-8.5-10.6-14.4-.3-5.3,3.8-7.9,8.4-9.4h-.2ZM718.6,99.3c4.3-2.5,9.8-4.2,16.3-4.9.3,5.3,2.2,10.6,5.1,15.3,3.9,6.3,9.9,11.7,16.8,14.4,5.5,2.2,11.9,2.2,18.4,1,11.7,14,6.7,31.9-6.6,30.9-4.8-.3-14.5-4.1-19.8-6.3-16.2-6.6-33.3-17.8-38.2-30.6-3.4-8.9.7-15.5,8.1-19.8h0ZM694.9,127.9c7.6,16.6,26.9,30.1,47.2,38.4,9.1,3.7,19.7,7.9,28.7,7.6.2,2.2-.2,4.2-1.1,5.8-10.6,18.4-66.2-6-80.6-32.5-4.4-8-3.5-15.6,5.8-19.4h0ZM678.7,163.9c15.3,19.8,45.4,36.8,69.9,39.7-3.9,5-11.8,6.8-18.5,6.5-12.2-.6-17.3-3.4-26.2-7.1-10.8-4.5-24-13.3-27-24.2-1.4-4.9-1.4-10.9,1.9-14.9h-.1ZM677.4,243.1c-6.4,10.4-14.8,20.1-22.4,29.7-.6-.1-1.3-.2-1.9-.2,7.7-13.2,12.1-27.3,12.9-41.6,2.7,4.7,6.6,8.8,11.5,12.2h0ZM600.7,420.1c-2-4-4.1-7.6-6.3-10.9,6.2-3.6,12.1-7.7,17.8-12.3v14.1c-3.9,2.9-7.8,5.9-11.6,9.1h0ZM788.9,383.5c-8.6-5.1-17.8-9-27.6-11.6l4-5.7c2.4-3.2,2.3-7.5,0-10.6l13.1-16.6c8.9-11.3,18.9-14.8,29.8-17.1,16.7,7.5,22.4,19.7,32.4,34-2.1,3.1-2.1,7.2.3,10.4l5.1,7.3-32.2-5.9-25,15.9h.1Z"/>
        <path class="cls-1" d="M175,387.9c13.1,0,26-2.9,38.5-8.6l-.7,2.6h113.2l7.8-28.6c1.9,5.2,4.3,9.4,6.8,12.7,7.1,9.4,20.9,20.6,46.7,20.6s42.8-7.5,61.4-22.8c16.5,15.5,38.8,24.9,63.8,24.9,43.2,0,79.6-24.1,102.7-68l10.1-19.2-38-24.1c21.5-16.6,33.7-36.6,33.7-57.6s-21.4-53.9-69.1-53.9-63.8,12.2-88.2,34.4c-2-5.9-4.7-10.6-7.5-14.4-9.6-12.9-24.5-20.1-41.8-20.1s-20.9,2.4-32,7.3l8.6-31.5,15.7-60.8-27.8-11.9-110.7,22.6-1.3,6.3h-29.7l-7.1,9.1c-22.7,29.2-60.6,63.1-89.3,71.6l-13.7,4-9.1,45.7h18.1l-21.6,80.3c-5.6,20.7-2.2,41.2,9.5,56.5,11.3,14.8,29.4,23,51,23h0ZM582.6,280.7l-9.6,10.6c-5.9,6.5-13.5,9.5-23.8,9.5s-2.9,0-4.2-.2c14.3-5.7,26.9-12.4,37.6-19.9ZM264.6,172.1l9.1-32.5,6-.5-9.1,33h-6ZM249.5,227.4h5.9l-18.9,68.7-7.3,6.1,20.3-74.8h0Z"/>
        <g>
          <path class="cls-1" d="M1386.7,468.2c0-36.8-33.1-74-107-74s-66.1,10-89.8,28.3c-4.6,3.5-8.8,7.3-12.6,11.3l8-30.6h-49.4l29.5-105.4h-50.6l-7.1,9.1c-27.9,35.9-71.9,76.8-110.6,96.3h-15.1l29.5-105.4h-50.6l-7.1,9.1c-27.5,35.5-70.9,75.9-109.2,95.6l-35.9-6.5-33.5,21.3c-15.1-15-35.3-23-58.6-23-51.6,0-112.4,38.4-151.8,93.1,6.2-35-2.4-56.5-11.6-68.8-11.7-15.7-30.1-24.3-51.9-24.3s-50.9,10.1-80.6,32.3c-3.2-6.1-6.8-10.9-10.3-14.4-11.4-11.7-26.9-17.9-45.1-17.9s-33.3,4.2-51,13.3v-.4c.1,0-28.9-12.4-28.9-12.4l-148.1,30-11.2,50.4,30.5-2.3c-.2,1.2-.4,2.6-.9,4.4l-53.8,203.5h276.1l14.3-53.8c1,13.5,5.1,25.1,12.4,34.9,8.7,11.6,26,25.4,59.1,25.4s52.2-8.4,75.3-25.9c12.7,17.6,32.2,27.9,56.1,27.9s45.1-9.4,69.6-28.1c12.5,16.7,33.6,26.1,60.8,26.1s53.1-9.1,76.8-28.2c.4.5.7,1,1.1,1.5,10,13.1,29.3,28.7,64.5,28.7s58.4-11.3,86.1-33.6c1.1,1.7,2.2,3.3,3.4,4.9,10,13.1,29.3,28.7,64.5,28.7s68.1-15.4,99.9-45.8c12.4,24.6,43.6,45.8,102.9,45.8s136.5-43.4,136.5-101-11.1-47.3-25.7-64.6c29.6-2.7,51.2-25.5,51.2-55.3v-.2ZM1128,581l-8.2-8.2-16.5,13.8c-10.1,8.4-15.9,9-17.4,9s-.7,0-.9,0c0-1.5,0-4.4,1.2-9.2l33.8-124.5h38.5c-5,11.4-7.7,23.7-7.7,36.4,0,25.3,9.3,45.4,21.8,61.9-17.9,0-34,8.2-44.5,20.9h-.1Z"/>
          <polygon class="cls-1" points="279.7 180.1 287.3 127.3 255.4 134.9 264.6 172.1 279.7 180.1"/>
          <polygon class="cls-1" points="246.3 302.2 264.6 240.5 264.6 217.8 242.3 217.8 219.4 290.8 224.8 315.8 246.3 302.2"/>
        </g>
        <path class="cls-2" d="M164.6,200.7h-20.1l.7-3.5c36-10.6,77.9-49.7,101.2-79.7h5.6l-20.8,74.4h35.3l-2.1,8.1h-35.3l-27.2,100.2c-4.9,18.3,3.2,27.5,15.9,27.5s14.5-3.2,22.9-10.2l2.8,2.8c-24,27.9-48,40.2-70.9,40.2-33.9,0-44.1-26.5-37.7-49.7l29.6-110h.1Z"/>
        <path class="cls-2" d="M354.7,308.2l19.4-67c4.6-16.2,2.5-24-5.6-24s-13.4,4.2-31.4,21.5l-31.4,115.7h-64.2l60-217.6c5.3-21.5-7.1-26.5-16.2-25.7l.7-3.5,88.2-18,2.5,1.1-10.6,40.9-26.1,95.9c33.5-32.4,55.7-42,72.3-42s36.7,20.5,25,58.9l-20.5,68.1c-5.3,17.3-1.8,22.9,5.3,22.9s13.4-3.5,20.1-12l4.2,3.5c-19.8,22.9-39.1,32.1-61.4,32.1s-39.5-19-30.3-50.8h0Z"/>
        <path class="cls-2" d="M441.1,292c0-50.8,44.4-106.5,108.6-106.5s45.5,14.1,45.5,30.3c0,25.4-34.9,55.4-94.5,69.5,5.6,23.6,23.3,35.3,46.2,35.3s31-6,41.3-17.3l3.9,2.5c-21.5,40.9-52.2,55.4-81.8,55.4s-69.1-28.9-69.1-69.1h-.1ZM499.6,279c30-10.2,45.5-38.1,45.5-63.5s-4.6-21.2-10.9-21.2c-14.5,0-35.3,38.1-35.3,74.4s.4,7.1.7,10.2h0Z"/>
        <path class="cls-2" d="M418.1,587.8l28.5-98.9c6.5-21.5,3-30-8-30s-15.5,3-36,21c-1,5.5-2,11.5-3.5,17.5l-41.5,155.9h-92.4l45.5-165.4c6.5-23,1.5-30.5-8-30.5s-14.5,3.5-34.5,21l-46,174.9h-91.9l46-173.9c7.5-29-9-35-22.5-34l1-4.5,125.9-25.5,3.5,1.5-12,45c42-38,68-48,90.9-48s41.5,18.5,40.5,52c40.5-37.5,70-52,95.4-52s52,30,36,83.4l-29,96.4c-7,24-2.5,32.5,7.5,32.5s19-5,28.5-17l6,5c-28,32.5-55,45.5-86.4,45.5s-57.5-24-43.5-71.9Z"/>
        <path class="cls-2" d="M673.8,616.3c-34,31.5-63.1,45.5-86.9,45.5s-52.3-21.5-52.3-59.5c0-96.9,107.9-188.4,183.5-188.4s44.2,9,57.2,31l47.5-28,5.9,1-54,175.4c-7,23-5.9,33,7,33s18.9-4.5,31.3-17l6.5,5c-30.2,32.5-58.8,45.5-91.7,45.5s-53.4-12.5-54-43.5ZM674.9,604.3c.5-5,2.2-11,3.8-17l37.8-125.4c5.9-20,3.2-36.5-8.6-36.5-30.2,0-80.4,88.9-80.4,157.4s7.6,32.5,21,32.5,16.2-3,26.4-11Z"/>
        <path class="cls-2" d="M1099.5,434.4h50l3-11.5h-50l29.5-105.4h-8c-28.8,37.1-77.9,84.1-123.8,105.4h-49.6l29.5-105.4h-8c-33,42.5-92.4,97.9-143.4,112.9l-1,5h28.5l-42,155.9c-9,33,5.5,70.4,53.5,70.4s63.4-16,95.9-51.8c0,27,16.9,51.8,56,51.8s66.5-17.5,100.4-57l-4-4c-12,10-23,14.5-32.5,14.5-18,0-29.5-13-22.5-39l38.5-141.9h0ZM966.1,591.3c-.9,3.2-1.5,6.4-1.9,9.6h0c-12,9.9-23,14.4-32.5,14.4-18,0-29.5-13-22.5-39l38.5-141.9h32.2l28.3,1-42,155.9h0Z"/>
        <path class="cls-2" d="M1136.5,612.3c0-19,16-32.5,34-32.5s31.5,11.5,35.5,30.5c5,20,5.5,41.5,28.5,41.5s27-9.5,27-24.5-16.5-33-35-49c-25-21-54.5-44.5-54.5-83.9s45-80.4,105.4-80.4,83.4,24.5,83.4,50.5-16,32-33.5,32-29.5-11.5-35-25c-7-19-6-47-30-47s-24.5,10.5-24.5,26,19.5,33.5,41,51c26.5,21.5,56.5,46,56.5,82.9s-50.5,77.4-112.9,77.4-85.9-24-85.9-49.5h0Z"/>
        <polygon class="cls-1" points="528.6 290.3 579.5 280.2 581.5 290.3 547.2 315.3 528.6 290.3"/>
        <polygon class="cls-4" points="563.8 387.5 619.4 371.5 676.8 371.5 647.1 402 599.4 435.7 563.8 387.5"/>
        <g>
          <path class="cls-1" d="M278.8,765.6c4.2,0,7.8,3.5,7.8,7.8v22.8c0,4.4-3.6,7.9-7.8,7.9h-20.7v-38.5h20.7ZM276.7,776.6c0-1.7-1.1-2.8-2.8-2.8h-5.9v21.9h5.9c1.7,0,2.8-1.1,2.8-2.8v-16.3h0Z"/>
          <path class="cls-1" d="M308.6,765.6h25.1v8.3h-15.3v6.7h13.2v8.2h-13.2v7h15.3v8.3h-25.1v-38.5Z"/>
          <path class="cls-1" d="M383.1,765.6l-11.5,38.5h-9.6l-11.2-38.5h10.6l5.4,24.5,6.4-24.5h9.9Z"/>
          <path class="cls-1" d="M401.7,765.6h25.1v8.3h-15.3v6.7h13.2v8.2h-13.2v7h15.3v8.3h-25.1v-38.5Z"/>
          <path class="cls-1" d="M447.8,765.6h9.9v30.1h12.3v8.3h-22.1v-38.5h0Z"/>
          <path class="cls-1" d="M512.5,765.6c2.7,0,4.5,1.8,4.5,4.5v29.5c0,2.7-1.8,4.5-4.5,4.5h-19.8c-2.7,0-4.5-1.8-4.5-4.5v-29.5c0-2.7,1.8-4.5,4.5-4.5h19.8ZM507.1,774.5c0-.3-.3-.6-.6-.6h-7.8c-.2,0-.5.3-.5.6v20.7c0,.3.3.5.5.5h7.8c.3,0,.6-.2.6-.5v-20.7Z"/>
          <path class="cls-1" d="M562.5,765.6c2.3,0,4.3,1.9,4.3,4.3v19.8c0,2.3-2,4.3-4.3,4.3h-13.6v10h-9.9v-38.5h23.5ZM556.4,785.9c.3,0,.5-.3.5-.5v-10.9c0-.3-.2-.6-.5-.6h-7.5v12h7.5Z"/>
          <path class="cls-1" d="M596.7,782.3v21.8h-9.1v-38.5h10l7.8,18,7.1-18h10.5v38.5h-9.3v-22.2l-6.5,15.3h-3.9l-6.6-14.9h0Z"/>
          <path class="cls-1" d="M645.3,765.6h25.1v8.3h-15.3v6.7h13.2v8.2h-13.2v7h15.3v8.3h-25.1v-38.5Z"/>
          <path class="cls-1" d="M700.5,782.9v21.1h-9.1v-38.5h9.1l11.5,21.2v-21.2h9.1v38.5h-9.4l-11.2-21.1h0Z"/>
          <path class="cls-1" d="M767.2,765.6v8.3h-8.7v30.1h-9.9v-30.1h-8.7v-8.3h27.4,0Z"/>
          <path class="cls-1" d="M839.4,804h-9.9v-9.6h-8.7v9.6h-9.9v-34c0-2.7,1.8-4.5,4.5-4.5h19.5c2.7,0,4.5,1.8,4.5,4.5v34h0ZM829.5,786.2v-11.6c0-.7-.6-1.1-1.4-1.1h-6.2c-.7,0-1.2.5-1.2,1.1v11.6h8.8Z"/>
          <path class="cls-1" d="M870.5,782.9v21.1h-9.1v-38.5h9.1l11.5,21.2v-21.2h9.1v38.5h-9.4l-11.2-21.1h0Z"/>
          <path class="cls-1" d="M934.2,765.6c4.2,0,7.8,3.5,7.8,7.8v22.8c0,4.4-3.6,7.9-7.8,7.9h-20.7v-38.5h20.7ZM932.1,776.6c0-1.7-1.1-2.8-2.8-2.8h-5.9v21.9h5.9c1.7,0,2.8-1.1,2.8-2.8v-16.3h0Z"/>
          <path class="cls-1" d="M1009.9,765.6c4.2,0,7.8,3.5,7.8,7.8v22.8c0,4.4-3.6,7.9-7.8,7.9h-20.7v-38.5h20.7ZM1007.9,776.6c0-1.7-1.1-2.8-2.8-2.8h-5.9v21.9h5.9c1.7,0,2.8-1.1,2.8-2.8v-16.3h0Z"/>
          <path class="cls-1" d="M1039.7,765.6h25.1v8.3h-15.3v6.7h13.2v8.2h-13.2v7h15.3v8.3h-25.1v-38.5Z"/>
          <path class="cls-1" d="M1085,795.7h14.4c.4,0,.6-.2.6-.5v-5.6c0-.3-.2-.5-.6-.5h-9.9c-2.7,0-4.5-1.8-4.5-4.5v-14.5c0-2.7,1.8-4.5,4.5-4.5h19.9v8.3h-13.9c-.3,0-.6.3-.6.6v5.6c0,.2.2.5.6.5h9.9c2.7,0,4.5,1.8,4.5,4.5v14.4c0,2.7-1.8,4.5-4.5,4.5h-20.4v-8.3Z"/>
          <path class="cls-1" d="M1141.1,804h-9.9v-38.5h9.9v38.5Z"/>
          <path class="cls-1" d="M1176.9,780.5h17.4v8.2h-3.2v11.1c0,2.5-1.9,4.4-4.4,4.4h-19.3c-2.5,0-4.4-1.9-4.4-4.4v-29.7c0-2.3,2-4.3,4.4-4.3h23.8v8.3h-17.8c-.3,0-.6.3-.6.6v20.6c0,.3.3.6.6.6h8c.4,0,.6-.2.6-.6v-6.5h-5.2v-8.2h0Z"/>
          <path class="cls-1" d="M1224.1,782.9v21.1h-9.1v-38.5h9.1l11.5,21.2v-21.2h9.1v38.5h-9.4l-11.2-21.1Z"/>
        </g>
      </g>
    </g>
  </g>
</svg>